<svg xmlns="http://www.w3.org/2000/svg" width="17" height="16" viewBox="0 0 17 16"><g><g><path fill="#998a7a" d="M16.994 2.53l-1.756 5.502a1.019 1.019 0 0 1-.996.784L4.753 9.962l-.357 1.278c-.006.035.02.079.037.1a.155.155 0 0 0 .123.059h9.847c.21 0 .38.171.38.383s-.17.383-.38.383H4.556a.918.918 0 0 1-.897-1.105l.405-1.462-1.553-6.864-.001-.004a.383.383 0 0 1-.002-.159v-.006L2.86.908a.268.268 0 0 0-.24-.15H.369a.381.381 0 0 1-.38-.383c0-.211.17-.383.38-.383H2.62c.482 0 .904.344 1.004.818a.384.384 0 0 1 0 .16L3.35 2.261h12.659l.251.067a.378.378 0 0 1 .467-.269.384.384 0 0 1 .267.47zm-13.637.498l1.395 6.164 9.45-1.14c.165-.002.272-.087.3-.208l1.3-4.816zm1.835 9.883c.844 0 1.53.69 1.53 1.54 0 .848-.686 1.54-1.53 1.54-.846 0-1.533-.692-1.533-1.54 0-.85.687-1.54 1.533-1.54zm0 2.313a.773.773 0 0 0 0-1.547.774.774 0 0 0 0 1.547zm8.06-2.313c.844 0 1.531.69 1.531 1.54 0 .848-.687 1.54-1.531 1.54-.845 0-1.532-.692-1.532-1.54 0-.85.687-1.54 1.532-1.54zm0 2.313a.774.774 0 0 0 0-1.547.774.774 0 0 0 0 1.547z"/></g></g></svg>