<svg xmlns="http://www.w3.org/2000/svg" width="15" height="17" viewBox="0 0 15 17"><g><g><path fill="#998a7a" d="M14.611 17H3.531a.397.397 0 0 1-.39-.405v-.81c0-.224.174-.405.39-.405.215 0 .389.181.389.405v.405h10.302V3.273h-.39a.397.397 0 0 1-.389-.405c0-.224.174-.405.39-.405h.778c.215 0 .39.181.39.405v13.727a.397.397 0 0 1-.39.404zm-2.335-2.43H.378a.397.397 0 0 1-.39-.404V.405C-.011.18.164 0 .379 0h11.898c.215 0 .389.18.389.405v13.761a.397.397 0 0 1-.39.405zM11.886.81H.767V13.76h11.12z"/></g></g></svg>