<svg xmlns="http://www.w3.org/2000/svg" width="31" height="31" viewBox="0 0 31 31"><g><g><path fill="#998a7a" d="M15.5 30.492c-8.271 0-15-6.728-15-14.998C.5 7.221 7.23.49 15.5.49c8.272 0 15.002 6.731 15.002 15.004 0 8.27-6.73 14.998-15.003 14.998zm0-28.731C7.93 1.76 1.77 7.922 1.77 15.494c0 7.57 6.158 13.727 13.728 13.727 7.572 0 13.732-6.157 13.732-13.727 0-7.572-6.16-13.733-13.732-13.733zm7.362 14.366H9.808l4.943 4.943a.635.635 0 1 1-.898.898l-6.027-6.026a.633.633 0 0 1-.138-.695.638.638 0 0 1 .138-.205l6.027-6.028a.635.635 0 1 1 .898.898l-4.943 4.944h13.054a.635.635 0 1 1 0 1.27z"/></g></g></svg>