<svg xmlns="http://www.w3.org/2000/svg" width="31" height="31" viewBox="0 0 31 31"><g><g><path fill="#0f294d" d="M15.5.508c8.271 0 15 6.728 15 14.997 0 8.274-6.729 15.004-15 15.004C7.229 30.51.499 23.78.499 15.505.498 7.235 7.228.508 15.501.508zm0 28.73c7.57 0 13.729-6.16 13.729-13.733 0-7.57-6.158-13.727-13.728-13.727-7.573 0-13.733 6.157-13.733 13.727 0 7.572 6.16 13.734 13.733 13.734zM8.139 14.874h13.054L16.25 9.93a.635.635 0 0 1 .898-.899l6.027 6.027a.63.63 0 0 1 .187.45.632.632 0 0 1-.187.45l-6.027 6.027a.634.634 0 1 1-.898-.898l4.943-4.944H8.138a.635.635 0 1 1 0-1.27z"/></g></g></svg>