<svg xmlns="http://www.w3.org/2000/svg" width="21" height="21" viewBox="0 0 21 21"><g><g><path fill="#fff" d="M11.48 13.441H9.52v1.961h1.96zm0-7.844H9.52v6.668h1.96zM4.76 4.76a8.062 8.062 0 0 1 5.738-2.377h.002c4.475 0 8.117 3.641 8.117 8.116a8.065 8.065 0 0 1-2.377 5.74 8.066 8.066 0 0 1-5.74 2.377c-4.475 0-8.117-3.641-8.117-8.117 0-2.167.845-4.205 2.377-5.739zM10.5 20.5a9.935 9.935 0 0 0 7.072-2.929A9.937 9.937 0 0 0 20.5 10.5c0-5.514-4.486-10-10.001-10h-.002a9.935 9.935 0 0 0-7.07 2.929 9.938 9.938 0 0 0-2.93 7.071c0 5.515 4.487 10.002 10.002 10.002z"/></g></g></svg>