<svg xmlns="http://www.w3.org/2000/svg" width="17" height="18" viewBox="0 0 17 18"><defs><linearGradient id="b5d3a" x1="8.29" x2="8.71" y1="18" y2="0" gradientUnits="userSpaceOnUse"><stop offset="0" stop-color="#ca6"/><stop offset=".5" stop-color="#e6d6b8"/><stop offset="1" stop-color="#ca6"/></linearGradient></defs><g><g><path fill="#fff" d="M14.557 9.518c0-.281-.258-.518-.54-.518H5.905V7.269h6.577V5.711A3.985 3.985 0 0 0 8.5 1.731a3.985 3.985 0 0 0-3.98 3.98V9H2.94a.508.508 0 0 0-.498.518v6.23c0 .282.217.52.498.52h11.077c.281 0 .54-.238.54-.52zm1.731 0v6.23c0 1.241-1.03 2.251-2.27 2.251H2.94c-1.24 0-2.23-1.01-2.23-2.25v-6.23c0-1.183 1.04-2.153 2.078-2.242V5.711A5.718 5.718 0 0 1 8.5.001a5.718 5.718 0 0 1 5.711 5.71v1.566c1.039.09 2.077 1.06 2.077 2.241zm-6.923 4.045l-.025.02v1.301H7.66v-1.301c-.01-.006-.017-.013-.025-.02-1.309-.862-.618-2.833.865-2.833s2.174 1.97.865 2.833z"/><path fill="url(#b5d3a)" d="M14.557 9.518c0-.281-.258-.518-.54-.518H5.905V7.269h6.577V5.711A3.985 3.985 0 0 0 8.5 1.731a3.985 3.985 0 0 0-3.98 3.98V9H2.94a.508.508 0 0 0-.498.518v6.23c0 .282.217.52.498.52h11.077c.281 0 .54-.238.54-.52zm1.731 0v6.23c0 1.241-1.03 2.251-2.27 2.251H2.94c-1.24 0-2.23-1.01-2.23-2.25v-6.23c0-1.183 1.04-2.153 2.078-2.242V5.711A5.718 5.718 0 0 1 8.5.001a5.718 5.718 0 0 1 5.711 5.71v1.566c1.039.09 2.077 1.06 2.077 2.241zm-6.923 4.045l-.025.02v1.301H7.66v-1.301c-.01-.006-.017-.013-.025-.02-1.309-.862-.618-2.833.865-2.833s2.174 1.97.865 2.833z"/></g></g></svg>