<svg xmlns="http://www.w3.org/2000/svg" width="25" height="13" viewBox="0 0 25 13"><defs><linearGradient id="pgfma" x1=".32" x2="24.32" y1="6.5" y2="6.5" gradientUnits="userSpaceOnUse"><stop offset="0" stop-color="#ca6"/><stop offset=".5" stop-color="#e6d6b8"/><stop offset="1" stop-color="#ca6"/></linearGradient></defs><g><g><path fill="gray" d="M21.59 10.68c.703 0 1.272-.57 1.272-1.272V3.591c0-.703-.57-1.273-1.272-1.273H3.41c-.703 0-1.273.57-1.273 1.273v5.817c0 .703.57 1.273 1.273 1.273zm0 1.82H3.41A3.09 3.09 0 0 1 .32 9.407V3.591A3.09 3.09 0 0 1 3.41.5h18.18a3.09 3.09 0 0 1 3.09 3.09v5.817a3.09 3.09 0 0 1-3.09 3.091zM5.955 8.135a1.636 1.636 0 1 1 0-3.273 1.636 1.636 0 0 1 0 3.273zm4.09 0a1.636 1.636 0 1 1 0-3.273 1.636 1.636 0 0 1 0 3.273zm4.09 0a1.636 1.636 0 1 1 .001-3.272 1.636 1.636 0 0 1 0 3.272z"/><path fill="url(#pgfma)" d="M21.59 10.68c.703 0 1.272-.57 1.272-1.272V3.591c0-.703-.57-1.273-1.272-1.273H3.41c-.703 0-1.273.57-1.273 1.273v5.817c0 .703.57 1.273 1.273 1.273zm0 1.82H3.41A3.09 3.09 0 0 1 .32 9.407V3.591A3.09 3.09 0 0 1 3.41.5h18.18a3.09 3.09 0 0 1 3.09 3.09v5.817a3.09 3.09 0 0 1-3.09 3.091zM5.955 8.135a1.636 1.636 0 1 1 0-3.273 1.636 1.636 0 0 1 0 3.273zm4.09 0a1.636 1.636 0 1 1 0-3.273 1.636 1.636 0 0 1 0 3.273zm4.09 0a1.636 1.636 0 1 1 .001-3.272 1.636 1.636 0 0 1 0 3.272z"/></g></g></svg>