<svg xmlns="http://www.w3.org/2000/svg" width="17" height="17" viewBox="0 0 17 17"><g><g><path fill="#998a7a" d="M15.952 17.077h-2.99c-.578 0-1.049-.456-1.049-1.017v-4.12c0-.573.481-1.057 1.05-1.057h2.99c.567 0 1.047.484 1.047 1.057v4.12c0 .57-.46 1.017-1.048 1.017zm.179-5.137c0-.098-.087-.19-.179-.19h-2.99c-.09 0-.18.093-.18.19v4.12c0 .095.093.152.18.152h2.99c.087 0 .179-.054.179-.152zm.426-2.945h-4.04a.45.45 0 0 1-.448-.451c0-.25.2-.452.449-.452h2.893L8.123.756a.453.453 0 0 1 0-.639.447.447 0 0 1 .634 0l7.351 7.4V4.477c0-.25.2-.451.449-.451a.45.45 0 0 1 .449.451v4.066c0 .25-.201.451-.45.451zm-5.545-.976l.03 8.04c0 .572-.46 1.018-1.047 1.018h-2.99c-.578 0-1.049-.456-1.049-1.017l.032-8.041C5.988 7.467 6.462 7 7.024 7h2.953c.56 0 1.035.466 1.035 1.018zm-4.166 0l-.02 8.04c0 .096.092.153.18.153h2.99c.086 0 .177-.054.177-.152l-.02-8.041c0-.095-.086-.184-.176-.184H7.024c-.09 0-.178.091-.178.184zm-2.808 9.058h-2.99C.47 17.077 0 16.621 0 16.06V2.038C0 1.466.48.982 1.049.982h2.99c.567 0 1.048.484 1.048 1.056V16.06c0 .56-.47 1.017-1.049 1.017zm.18-15.039c0-.098-.088-.19-.18-.19h-2.99c-.09 0-.178.094-.178.19V16.06c0 .095.09.152.179.152h2.99c.086 0 .178-.054.178-.152z"/></g></g></svg>