<svg xmlns="http://www.w3.org/2000/svg" width="30" height="30" viewBox="0 0 30 30"><g><g><path fill="#fff" d="M29.362 14.62h-.014a.644.644 0 0 1-.632-.657A12.265 12.265 0 0 0 25.07 4.91c-2.427-2.413-5.678-3.733-9.11-3.624-.318-.002-.653-.274-.661-.628a.644.644 0 0 1 .632-.656c3.805-.113 7.374 1.339 10.052 4a13.534 13.534 0 0 1 4.025 9.99.644.644 0 0 1-.646.628zm-9.573-4.462a4.977 4.977 0 0 1 1.457 3.862.645.645 0 0 1-.645.6c-.014 0-.028 0-.043-.002a.644.644 0 0 1-.602-.684 3.694 3.694 0 0 0-1.082-2.868c-.757-.754-1.801-1.131-2.887-1.075-.358.045-.663-.246-.687-.598a.644.644 0 0 1 .603-.684 5.04 5.04 0 0 1 3.886 1.45zm-3.865-5.804a9.295 9.295 0 0 1 6.962 2.725 9.226 9.226 0 0 1 2.74 6.92.643.643 0 0 1-.644.62h-.022a.644.644 0 0 1-.624-.663 7.96 7.96 0 0 0-2.363-5.97c-1.6-1.587-3.75-2.452-6.006-2.347-.356-.006-.655-.267-.667-.62a.644.644 0 0 1 .624-.665zm.45 15.527c.165-.09 1.919-1.794 1.919-1.794.511-.473 1.31-.445 1.775.023l6.209 6.233c.477.486.486 1.25.024 1.742l-.326.352c-1.547 1.668-3.3 3.558-6.135 3.558-3.235 0-7.165-2.455-12.366-7.727C2.31 17.034-.066 13.099-.004 9.886c.052-2.684 1.787-4.312 3.317-5.748.215-.202.427-.402.632-.6a1.268 1.268 0 0 1 1.79.018l6.185 6.266c.235.237.364.554.362.89a1.246 1.246 0 0 1-.378.888l-1.892 1.841c0 .073.107.728 1.084 2.054 1.633 2.214 4.248 4.387 5.279 4.386zm-7.283-7.34L11 10.683 4.81 4.453c-.17.206-.39.411-.61.62C2.788 6.394 1.33 7.764 1.287 9.91c-.055 2.807 2.27 6.555 7.108 11.46 4.875 4.94 8.618 7.34 11.444 7.34 2.268.002 3.685-1.527 5.185-3.144l.33-.356-6.206-6.196c-.008.045-1.733 1.72-1.848 1.828a1.743 1.743 0 0 1-.253.175 1.505 1.505 0 0 1-.672.148h-.001c-2.18.001-6.347-4.303-7.35-6.619-.383-.884-.36-1.559.066-2.005z"/></g></g></svg>