<svg viewBox="0 0 19.79 18" xmlns="http://www.w3.org/2000/svg"><path d="M18.64 11.071c-.24.822-.44 1.549-.62 2.19-.98 3.544-1.31 4.737-3.39 4.737H5.15c-2.07 0-2.4-1.207-3.4-4.79-.18-.628-.37-1.337-.6-2.137A1.94 1.94 0 0 1-.01 9.304v-.518a1.982 1.982 0 0 1 1.99-1.959H17.8a1.975 1.975 0 0 1 1.99 1.959V9.3a1.948 1.948 0 0 1-1.15 1.771zm.32-2.285a1.151 1.151 0 0 0-1.16-1.141H1.98A1.151 1.151 0 0 0 .82 8.786V9.3a1.126 1.126 0 0 0 .79 1.069.4.4 0 0 1 .27.276c.26.885.48 1.661.67 2.342 1 3.593 1.2 4.189 2.6 4.189h9.48c1.41 0 1.61-.589 2.59-4.134.19-.7.41-1.49.68-2.4a.417.417 0 0 1 .27-.276 1.126 1.126 0 0 0 .79-1.069v-.511zm-5.45-3.017a.417.417 0 0 1-.31-.139l-2.7-3.038a1.385 1.385 0 0 1-.67.175 1.415 1.415 0 0 1-.67-.175L6.47 5.63a.417.417 0 0 1-.31.139.431.431 0 0 1-.28-.1.409.409 0 0 1-.04-.578L8.58 2a1.428 1.428 0 0 1-.15-.62 1.405 1.405 0 0 1 2.81 0 1.308 1.308 0 0 1-.16.62l2.74 3.086a.408.408 0 0 1-.03.577.429.429 0 0 1-.28.106zM9.83.819a.565.565 0 1 0 .58.565.571.571 0 0 0-.58-.565z" fill="#d9b898" fill-rule="evenodd"/></svg>