<svg xmlns="http://www.w3.org/2000/svg" width="30" height="29" viewBox="0 0 30 29"><path d="M26.72 29H3.26a3.3 3.3 0 0 1-3.27-3.31V9.61a3.3 3.3 0 0 1 3.27-3.32h23.46a3.3 3.3 0 0 1 3.27 3.32v16.08A3.293 3.293 0 0 1 26.72 29zm2.03-19.39a2.042 2.042 0 0 0-2.03-2.05H3.26a2.042 2.042 0 0 0-2.03 2.05v4.29h11.23v-.09a1.236 1.236 0 0 1 1.22-1.24h2.56a1.236 1.236 0 0 1 1.22 1.24v.09h11.29V9.61zm-15.06 5l.01 1.79 2.52-.02v-2.57l-2.54.02.01.61c0 .03.01.06.01.09s-.01.05-.01.08zm15.06.55H17.46v1.24a1.236 1.236 0 0 1-1.22 1.24h-2.56a1.236 1.236 0 0 1-1.22-1.24v-1.24H1.23v10.53a2.042 2.042 0 0 0 2.03 2.05h23.46a2.042 2.042 0 0 0 2.03-2.05V15.16zM20.57 5.03a.625.625 0 0 1-.62-.63v-.68a2.538 2.538 0 0 0-2.61-2.46h-4.72a2.529 2.529 0 0 0-2.6 2.46v.68a.625.625 0 1 1-1.25 0v-.68A3.794 3.794 0 0 1 12.62 0h4.72a3.8 3.8 0 0 1 3.86 3.72v.68a.627.627 0 0 1-.63.63z" fill="#d9b898" fill-rule="evenodd"/></svg>