<svg xmlns="http://www.w3.org/2000/svg" width="21" height="22" viewBox="0 0 21 22"><defs><linearGradient id="3ocxa" x1="10.44" x2="10.44" y1="21.28" y2=".66" gradientUnits="userSpaceOnUse"><stop offset="0" stop-color="#ca6"/><stop offset=".5" stop-color="#e6d6b8"/><stop offset="1" stop-color="#ca6"/></linearGradient></defs><g><g><path fill="#fff" d="M20.439 4.936l-1.113 1.39-5.345-4.275L15.094.66zm-2.966 6.928c0-3.866-3.144-7.012-7.008-7.012-3.866 0-7.009 3.146-7.009 7.012 0 3.866 3.144 7.012 7.009 7.012a7.006 7.006 0 0 0 7.008-7.012zm-.288 5.557l1.992 2.83-1.455 1.026-1.824-2.592a8.696 8.696 0 0 1-10.877-.016l-1.835 2.608-1.456-1.025 2.005-2.849c-4.65-5.644-.644-14.262 6.729-14.262 7.39 0 11.39 8.65 6.721 14.28zM9.569 6.704h1.782v5.83l-4.53 2.764-.933-1.52 3.681-2.243zm-2.67-4.653L1.554 6.326.441 4.936 5.786.66z"/><path fill="url(#3ocxa)" d="M20.439 4.936l-1.113 1.39-5.345-4.275L15.094.66zm-2.966 6.928c0-3.866-3.144-7.012-7.008-7.012-3.866 0-7.009 3.146-7.009 7.012 0 3.866 3.144 7.012 7.009 7.012a7.006 7.006 0 0 0 7.008-7.012zm-.288 5.557l1.992 2.83-1.455 1.026-1.824-2.592a8.696 8.696 0 0 1-10.877-.016l-1.835 2.608-1.456-1.025 2.005-2.849c-4.65-5.644-.644-14.262 6.729-14.262 7.39 0 11.39 8.65 6.721 14.28zM9.569 6.704h1.782v5.83l-4.53 2.764-.933-1.52 3.681-2.243zm-2.67-4.653L1.554 6.326.441 4.936 5.786.66z"/></g></g></svg>