<svg xmlns="http://www.w3.org/2000/svg" xmlns:xlink="http://www.w3.org/1999/xlink" width="17px" height="20px">
  <path fill-rule="evenodd" fill="#d9b898"
    d="M16.272,17.533 L11.594,17.533 C11.358,17.533 11.167,17.351 11.167,17.124 C11.167,16.898 11.358,16.714 11.594,16.714 L15.846,16.714 L15.846,3.285 L11.594,3.285 C11.358,3.285 11.167,3.101 11.167,2.875 C11.167,2.649 11.358,2.466 11.594,2.466 L16.272,2.466 C16.508,2.466 16.699,2.649 16.699,2.875 L16.699,17.124 C16.699,17.351 16.508,17.533 16.272,17.533 ZM8.485,19.494 C8.221,19.494 8.007,19.306 8.007,19.076 L8.007,16.431 L8.007,4.415 L8.007,0.923 C8.007,0.692 8.221,0.505 8.485,0.505 C8.748,0.505 8.962,0.692 8.962,0.923 L8.962,4.389 L8.962,16.457 L8.962,19.076 C8.962,19.306 8.748,19.494 8.485,19.494 ZM5.406,16.714 C5.642,16.714 5.833,16.898 5.833,17.124 C5.833,17.351 5.642,17.533 5.406,17.533 L0.728,17.533 C0.492,17.533 0.301,17.351 0.301,17.124 L0.301,2.875 C0.301,2.649 0.492,2.466 0.728,2.466 L5.406,2.466 C5.642,2.466 5.833,2.649 5.833,2.875 C5.833,3.101 5.642,3.285 5.406,3.285 L1.154,3.285 L1.154,16.714 L5.406,16.714 Z" />
</svg>