<svg xmlns="http://www.w3.org/2000/svg" width="21" height="21" viewBox="0 0 21 21"><defs><linearGradient id="e2qfa" x1="10.5" x2="10.52" y1="20.49" y2=".51" gradientUnits="userSpaceOnUse"><stop offset="0" stop-color="#ca6"/><stop offset=".5" stop-color="#e6d6b8"/><stop offset="1" stop-color="#ca6"/></linearGradient></defs><g><g><path fill="#fff" d="M17.405 10.962c-.66.66-1.622 1.024-2.706 1.024-.675 0-1.38-.144-2.04-.416l-.56-.23-6.833 6.833c-.323.323-.754.5-1.215.5-.46 0-.892-.177-1.215-.5a1.72 1.72 0 0 1 0-2.43L9.67 8.91l-.23-.56c-.723-1.752-.478-3.66.608-4.745.8-.8 1.94-1.279 3.047-1.279.332 0 .654.04.964.122l-3.154 3.154 4.502 4.503 3.154-3.153c.387 1.493-.2 3.053-1.156 4.01zm2.211-6.074l-.608-.952-3.6 3.6-1.935-1.934 3.601-3.6-.953-.609A5.614 5.614 0 0 0 13.095.51c-1.602 0-3.181.66-4.332 1.81-1.496 1.497-1.948 3.857-1.215 6.143L1.552 14.46a3.539 3.539 0 0 0 0 4.998 3.51 3.51 0 0 0 2.5 1.032c.945 0 1.833-.367 2.498-1.032l5.997-5.997c.706.224 1.44.341 2.151.341 1.57 0 2.988-.552 3.991-1.556 1.706-1.706 2.573-4.781.928-7.358z"/><path fill="url(#e2qfa)" d="M17.405 10.962c-.66.66-1.622 1.024-2.706 1.024-.675 0-1.38-.144-2.04-.416l-.56-.23-6.833 6.833c-.323.323-.754.5-1.215.5-.46 0-.892-.177-1.215-.5a1.72 1.72 0 0 1 0-2.43L9.67 8.91l-.23-.56c-.723-1.752-.478-3.66.608-4.745.8-.8 1.94-1.279 3.047-1.279.332 0 .654.04.964.122l-3.154 3.154 4.502 4.503 3.154-3.153c.387 1.493-.2 3.053-1.156 4.01zm2.211-6.074l-.608-.952-3.6 3.6-1.935-1.934 3.601-3.6-.953-.609A5.614 5.614 0 0 0 13.095.51c-1.602 0-3.181.66-4.332 1.81-1.496 1.497-1.948 3.857-1.215 6.143L1.552 14.46a3.539 3.539 0 0 0 0 4.998 3.51 3.51 0 0 0 2.5 1.032c.945 0 1.833-.367 2.498-1.032l5.997-5.997c.706.224 1.44.341 2.151.341 1.57 0 2.988-.552 3.991-1.556 1.706-1.706 2.573-4.781.928-7.358z"/></g></g></svg>