<svg xmlns="http://www.w3.org/2000/svg" width="24" height="27" viewBox="0 0 24 27"><g><g><path fill="#998a7a" d="M22.07 26.437H4.136c-.79 0-1.431-.633-1.431-1.41v-1.824H1.047a.543.543 0 0 1-.547-.54c0-.297.244-.538.547-.538h1.658v-2.158H1.047a.543.543 0 0 1-.547-.539c0-.297.244-.539.547-.539h1.658v-2.156H1.047a.543.543 0 0 1-.547-.539c0-.298.244-.539.547-.539h1.658V13.5H1.047a.543.543 0 0 1-.547-.54c0-.297.244-.538.547-.538h1.658v-2.157H1.047a.543.543 0 0 1-.547-.54c0-.297.244-.539.547-.539h1.658V7.03H1.047A.543.543 0 0 1 .5 6.49c0-.298.244-.539.547-.539h1.658V3.795H1.047a.543.543 0 0 1-.547-.54c0-.297.244-.538.547-.538h1.658v-.744c0-.777.642-1.41 1.43-1.41H22.07c.79 0 1.431.633 1.431 1.41v23.054c0 .777-.642 1.41-1.43 1.41zm.336-24.464a.334.334 0 0 0-.336-.332H4.136a.334.334 0 0 0-.337.332v.744h.64c.302 0 .547.241.547.539 0 .298-.245.539-.547.539h-.64v2.156h.64c.302 0 .547.241.547.54 0 .297-.245.538-.547.538h-.64v2.156h.64c.302 0 .547.242.547.54 0 .298-.245.539-.547.539h-.64v2.157h.64c.302 0 .547.24.547.539a.543.543 0 0 1-.547.539h-.64v2.156h.64c.302 0 .547.241.547.54a.543.543 0 0 1-.547.538h-.64v2.156h.64c.302 0 .547.242.547.54 0 .297-.245.538-.547.538h-.64v2.158h.64c.302 0 .547.241.547.539a.543.543 0 0 1-.547.539h-.64v1.824c0 .184.151.332.337.332H22.07a.334.334 0 0 0 .336-.332zm-4.845 18.42l-.21.08c-.65.246-1.385.526-2.164.526-2.055 0-3.606-1.9-5.03-6.157-1.096-3.281-1.269-5.456-.544-6.84.613-1.173 1.718-1.512 2.606-1.783l.318-.1c.145-.047.301-.097.479-.097.358 0 .643.21.76.563l1.287 3.851a.821.821 0 0 1-.53 1.038l-1.041.337c-.17.687.64 3.127 1.17 3.52.258-.077.79-.25.918-.293.157-.05.278-.071.392-.071.365 0 .665.212.78.555l1.304 3.841a.822.822 0 0 1-.495 1.03zm-1.767-4.29c-1.008.329-1.039.329-1.14.329-1.247 0-2.008-2.651-2.177-3.58-.077-.423-.311-1.711.52-2.015l.945-.306-1.125-3.368-.273.085c-.8.245-1.555.476-1.958 1.247-.565 1.081-.36 3.102.612 6.01 1.622 4.854 3.054 5.416 3.99 5.416.568 0 1.17-.226 1.752-.447z"/></g></g></svg>