<svg xmlns="http://www.w3.org/2000/svg" width="25" height="25" viewBox="0 0 25 25"><g><g><path fill="#998a7a" d="M23.976 24.993h-8.77a.522.522 0 0 1-.521-.524c0-.29.233-.525.52-.525h8.77l-.016-1.793c-1.968-1.917-7.316-4.033-8.035-4.312a.516.516 0 0 1-.444-.483.528.528 0 0 1 .49-.56.59.59 0 0 1 .241.03c.253.096 6.22 2.375 8.478 4.583.197.194.31.464.31.742v1.81c0 .57-.459 1.032-1.023 1.032zM18.64 9.406c-.12.534-.479.935-.947 1.093a6.877 6.877 0 0 1-1.77 3.69c.008 1.527-.03 1.605-.091 1.732a.518.518 0 0 1-.697.24.525.525 0 0 1-.272-.612c.009-.085.026-.388.017-1.465l-.001-.11c0-.14.057-.276.157-.375a5.75 5.75 0 0 0 1.662-3.588.523.523 0 0 1 .52-.486c.306 0 .388-.267.405-.349.041-.18.003-.431-.233-.544a.526.526 0 0 1-.273-.635 5.61 5.61 0 0 0 .264-1.704c0-2.894-2.19-5.248-4.882-5.248-2.691 0-4.88 2.354-4.88 5.248 0 .578.089 1.152.265 1.705a.527.527 0 0 1-.274.634c-.306.146-.249.479-.235.544.019.082.1.349.39.349.272 0 .515.212.536.486a5.756 5.756 0 0 0 1.627 3.55.524.524 0 0 1 .153.371v.116c-.01 1.103.007 1.414.016 1.501a.525.525 0 0 1-.5.669.518.518 0 0 1-.464-.287c-.07-.135-.107-.211-.095-1.788a6.898 6.898 0 0 1-1.732-3.646c-.472-.16-.828-.559-.946-1.09-.125-.563.041-1.106.425-1.465a6.634 6.634 0 0 1-.208-1.65c0-3.471 2.657-6.296 5.922-6.296 3.267 0 5.924 2.825 5.924 6.297 0 .56-.07 1.113-.207 1.65.382.358.55.901.424 1.463zm-9.134 7.912a.515.515 0 0 1-.432.52c-.713.274-6.023 2.353-8.038 4.324l.005 1.8 8.692-.018c.287 0 .52.235.52.525 0 .29-.233.524-.52.524H1.024A1.029 1.029 0 0 1 0 23.962V22.15c0-.28.11-.543.31-.74 2.309-2.259 8.229-4.492 8.48-4.586.328-.12.716.141.716.493zm2.09 4.144a.523.523 0 0 1 .46.58l-.284 2.508a.522.522 0 0 1-.576.462.523.523 0 0 1-.459-.58l.283-2.509a.517.517 0 0 1 .576-.461zm-.325-.454a.519.519 0 0 1-.454-.27c-.912-1.648-1.047-2.69-.413-3.183.074-.05.858-.538 2.048-.538.688 0 1.376.161 2.047.477a.878.878 0 0 1 .464.54c.064.2.26.81-.765 2.679a.524.524 0 0 1-.532.265 7.499 7.499 0 0 0-2.31.023.53.53 0 0 1-.085.007zm2.18-1.113c.442-.864.532-1.322.528-1.486a3.71 3.71 0 0 0-1.527-.343c-.876 0-1.45.346-1.457.35.025.034.051.496.563 1.496a8.597 8.597 0 0 1 1.893-.017zm-.04 1.544a.516.516 0 0 1 .567.474l.284 2.518a.524.524 0 0 1-.519.584.523.523 0 0 1-.517-.464l-.285-2.54a.524.524 0 0 1 .47-.572z"/></g></g></svg>