<svg xmlns="http://www.w3.org/2000/svg" width="19" height="20" viewBox="0 0 19 20"><defs><linearGradient id="rdsda" x1="9.48" x2="9.49" y1="20.01" y2=".09" gradientUnits="userSpaceOnUse"><stop offset="0" stop-color="#ca6"/><stop offset=".5" stop-color="#e6d6b8"/><stop offset="1" stop-color="#ca6"/></linearGradient></defs><g><g><path fill="#565d64" d="M17.693 7.861c-.053-.217-.037-.395-.012-.664.038-.432.092-1.022-.16-1.885-.32-1.087-1.007-1.523-1.43-2.152-.339-.504-.3-1.69-2.077-2.532a5.406 5.406 0 0 0-1.64-.46c-2.312-.291-4.441.23-6.31 1.327-1.05.616-4.43.527-5.579.516V3.91l.35.003c2.143.015 4.803.057 6.195-.76 1.29-.757 2.673-1.14 4.115-1.14.368-.01 1.392.038 2.05.35 1.243.588.374.904 1.922 2.634.307.343.534.536.628.856.297 1.015-.11 1.393.15 2.462.265 1.091.67 1.227.67 1.982 0 1.106-.883.924-3.353.925-2.454 0-4.13 1.982-2.426 5.195.22.416.428.809.413 1.076-.034.594-.737.757-1.28.452-.53-.322-2.24-2.394-2.741-3.018-1.702-2.122-3.627-4.308-6.693-4.514v1.918c2.3.214 3.728 1.963 5.316 3.942.534.665 2.338 2.87 3.185 3.344 1.803 1.009 4.012-.008 4.127-2.014.088-1.535-1.212-2.37-1.096-3.772.043-.512.67-.736 1.195-.736h2.116c1.945 0 3.154-1.046 3.154-2.798 0-1.323-.695-2.051-.789-2.435z"/><path fill="url(#rdsda)" d="M17.693 7.861c-.053-.217-.037-.395-.012-.664.038-.432.092-1.022-.16-1.885-.32-1.087-1.007-1.523-1.43-2.152-.339-.504-.3-1.69-2.077-2.532a5.406 5.406 0 0 0-1.64-.46c-2.312-.291-4.441.23-6.31 1.327-1.05.616-4.43.527-5.579.516V3.91l.35.003c2.143.015 4.803.057 6.195-.76 1.29-.757 2.673-1.14 4.115-1.14.368-.01 1.392.038 2.05.35 1.243.588.374.904 1.922 2.634.307.343.534.536.628.856.297 1.015-.11 1.393.15 2.462.265 1.091.67 1.227.67 1.982 0 1.106-.883.924-3.353.925-2.454 0-4.13 1.982-2.426 5.195.22.416.428.809.413 1.076-.034.594-.737.757-1.28.452-.53-.322-2.24-2.394-2.741-3.018-1.702-2.122-3.627-4.308-6.693-4.514v1.918c2.3.214 3.728 1.963 5.316 3.942.534.665 2.338 2.87 3.185 3.344 1.803 1.009 4.012-.008 4.127-2.014.088-1.535-1.212-2.37-1.096-3.772.043-.512.67-.736 1.195-.736h2.116c1.945 0 3.154-1.046 3.154-2.798 0-1.323-.695-2.051-.789-2.435z"/></g></g></svg>