<svg xmlns="http://www.w3.org/2000/svg" width="31" height="36" viewBox="0 0 31 36"><defs><linearGradient id="3wjca" x1="15.5" x2="15.5" y1="36" y2="0" gradientUnits="userSpaceOnUse"><stop offset="0" stop-color="#ca6"/><stop offset=".5" stop-color="#e6d6b8"/><stop offset="1" stop-color="#ca6"/></linearGradient></defs><g><g><path fill="#e6c78a" d="M27.167 12.333l-9-9H3.833v29.334h23.334zM30.501 11v25.002H.499V-.001h19.068zm-12.668 1.667H24.5V16h-10V6h3.333zm-9.333 6h14V22h-14zm0 6.001h14V28h-14z"/><path fill="url(#3wjca)" d="M27.167 12.333l-9-9H3.833v29.334h23.334zM30.501 11v25.002H.499V-.001h19.068zm-12.668 1.667H24.5V16h-10V6h3.333zm-9.333 6h14V22h-14zm0 6.001h14V28h-14z"/></g></g></svg>