<svg xmlns="http://www.w3.org/2000/svg" xmlns:xlink="http://www.w3.org/1999/xlink" width="18px" height="18px" viewBox="0 0 18 18"><path fill-rule="evenodd" fill="rgb(153, 150, 145)" d="M8.998,18.001 C4.036,18.001 -0.000,13.964 -0.000,9.001 C-0.000,4.040 4.036,0.003 8.998,0.003 C13.961,0.003 17.998,4.040 17.998,9.001 C17.998,13.964 13.961,18.001 8.998,18.001 ZM8.998,0.760 C4.454,0.760 0.757,4.457 0.757,9.001 C0.757,13.546 4.454,17.244 8.998,17.244 C13.543,17.244 17.241,13.546 17.241,9.001 C17.241,4.457 13.543,0.760 8.998,0.760 ZM12.766,12.769 C12.692,12.843 12.595,12.880 12.498,12.880 C12.401,12.880 12.304,12.843 12.231,12.769 L8.999,9.538 L5.767,12.769 C5.694,12.843 5.597,12.880 5.500,12.880 C5.403,12.880 5.306,12.843 5.232,12.769 C5.084,12.621 5.084,12.382 5.232,12.234 L8.464,9.002 L5.232,5.771 C5.084,5.623 5.084,5.383 5.232,5.235 C5.380,5.087 5.620,5.087 5.767,5.235 L8.999,8.467 L12.231,5.235 C12.378,5.087 12.618,5.087 12.766,5.235 C12.914,5.383 12.914,5.623 12.766,5.771 L9.534,9.002 L12.766,12.234 C12.914,12.382 12.914,12.621 12.766,12.769 Z" /></svg>