<svg xmlns="http://www.w3.org/2000/svg" width="22" height="16" viewBox="0 0 22 16"><defs><linearGradient id="6fl6a" x1=".27" x2="21.27" y1="8" y2="8" gradientUnits="userSpaceOnUse"><stop offset="0" stop-color="#ca6"/><stop offset=".5" stop-color="#e6d6b8"/><stop offset="1" stop-color="#ca6"/></linearGradient></defs><g><g><path fill="gray" d="M19.697 8c0-1.234-3.831-6.096-8.762-6.096-4.932 0-8.763 4.862-8.763 6.096 0 1.233 3.831 6.095 8.763 6.095 4.93 0 8.762-4.862 8.762-6.095zm1.906 0c0 2.634-4.939 8-10.668 8C5.205 16 .267 10.634.267 8c0-2.635 4.938-8.001 10.668-8.001 5.73 0 10.667 5.366 10.668 8zm-6.584-2.042c.31.615.487 1.307.487 2.041 0 2.521-2.05 4.573-4.571 4.573a4.566 4.566 0 0 1-4.559-4.573c0-2.52 1.918-4.572 4.585-4.572v1.905A2.648 2.648 0 0 0 8.281 8a2.659 2.659 0 0 0 2.654 2.667c1.97 0 3.274-2.08 2.382-3.858z"/><path fill="url(#6fl6a)" d="M19.697 8c0-1.234-3.831-6.096-8.762-6.096-4.932 0-8.763 4.862-8.763 6.096 0 1.233 3.831 6.095 8.763 6.095 4.93 0 8.762-4.862 8.762-6.095zm1.906 0c0 2.634-4.939 8-10.668 8C5.205 16 .267 10.634.267 8c0-2.635 4.938-8.001 10.668-8.001 5.73 0 10.667 5.366 10.668 8zm-6.584-2.042c.31.615.487 1.307.487 2.041 0 2.521-2.05 4.573-4.571 4.573a4.566 4.566 0 0 1-4.559-4.573c0-2.52 1.918-4.572 4.585-4.572v1.905A2.648 2.648 0 0 0 8.281 8a2.659 2.659 0 0 0 2.654 2.667c1.97 0 3.274-2.08 2.382-3.858z"/></g></g></svg>