<svg xmlns="http://www.w3.org/2000/svg" width="17" height="17" viewBox="0 0 17 17"><g><g><path fill="#998a7a" d="M11.281 12.867H9.705l-4.84 4.047a.36.36 0 0 1-.385.05.357.357 0 0 1-.208-.323v-3.846C2.126 12.137 0 9.668 0 6.452 0 2.955 2.684.001 5.86.001h5.421c3.1 0 5.717 2.946 5.717 6.433 0 3.487-2.618 6.433-5.717 6.433zm0-12.152H5.86C3.122.715.72 3.395.72 6.452c0 3 2.03 5.265 3.993 5.722a.358.358 0 0 1 .279.347v3.352l4.348-3.637a.361.361 0 0 1 .233-.084h1.707c2.708 0 4.996-2.618 4.996-5.718S13.99.715 11.281.715zm.655 7.17c-.83 0-1.505-.68-1.505-1.516 0-.835.675-1.514 1.505-1.514.83 0 1.504.679 1.504 1.514 0 .836-.675 1.516-1.504 1.516zm0-2.315a.793.793 0 0 0-.784.8c0 .44.352.8.784.8.432 0 .783-.36.783-.8 0-.441-.351-.8-.783-.8zm-3.59 2.315c-.83 0-1.505-.68-1.505-1.516 0-.835.675-1.514 1.504-1.514.83 0 1.505.679 1.505 1.514 0 .836-.675 1.516-1.505 1.516zm0-2.315a.793.793 0 0 0-.784.8c0 .44.351.8.783.8.432 0 .784-.36.784-.8 0-.441-.352-.8-.784-.8zM4.754 7.885c-.83 0-1.505-.68-1.505-1.516 0-.835.675-1.514 1.505-1.514.83 0 1.504.679 1.504 1.514 0 .836-.675 1.516-1.504 1.516zm0-2.315a.793.793 0 0 0-.784.8c0 .44.352.8.784.8.431 0 .783-.36.783-.8 0-.441-.352-.8-.783-.8z"/></g></g></svg>