<svg xmlns="http://www.w3.org/2000/svg" width="16" height="21" viewBox="0 0 16 21"><g><g><path fill="#0f294d" d="M9.78 15.482l-1.347 5.18a.44.44 0 0 1-.422.33.44.44 0 0 1-.423-.33l-1.346-5.18C2.767 14.66.274 11.488.274 7.84c0-4.33 3.47-7.852 7.737-7.852 4.266 0 7.736 3.523 7.736 7.852 0 3.648-2.493 6.819-5.968 7.642zM8.01.876C4.228.876 1.15 4 1.15 7.84c0 3.32 2.326 6.192 5.532 6.831a.44.44 0 0 1 .338.322l.991 3.814.992-3.814a.44.44 0 0 1 .338-.322c3.206-.64 5.532-3.512 5.532-6.83C14.872 4 11.794.875 8.011.875zm3.027 7.467l-.614.464c.1.33.194.63.278.897.448 1.426.583 1.857.338 2.197a.551.551 0 0 1-.453.227c-.36 0-.785-.3-1.918-1.106l-.651-.459-.652.46c-1.133.804-1.558 1.105-1.919 1.105a.552.552 0 0 1-.452-.227c-.245-.34-.11-.77.338-2.199.084-.267.178-.565.278-.896-.275-.207-.524-.393-.749-.56-1.299-.966-1.69-1.258-1.535-1.75.157-.498.638-.505 2.428-.529l.777-.012c.113-.329.212-.627.302-.893.513-1.536.667-2 1.176-2 .512 0 .679.492 1.231 2.126l.261.768c.347.005.66.009.94.011 1.614.015 2.101.02 2.259.511.158.498-.228.788-1.663 1.865zm-.603-1.488c-.363-.003-.781-.008-1.255-.017a.439.439 0 0 1-.404-.297l-.363-1.064c-.145-.43-.285-.846-.4-1.15-.102.276-.225.642-.351 1.02-.115.345-.249.744-.404 1.194a.438.438 0 0 1-.404.297l-1.087.017c-.462.006-.91.012-1.24.029.23.183.536.41.852.646.291.217.626.466 1.003.753.148.113.21.306.156.485-.137.456-.263.858-.372 1.206-.119.378-.233.745-.313 1.027.27-.18.634-.439 1.012-.707l.905-.638a.433.433 0 0 1 .495 0l.905.638c.374.266.736.523 1.01.703-.08-.283-.194-.648-.312-1.025-.11-.347-.235-.748-.372-1.204a.447.447 0 0 1 .156-.484l.866-.654c.37-.278.727-.547.986-.756-.294-.012-.675-.015-1.07-.019z"/></g></g></svg>