<svg xmlns="http://www.w3.org/2000/svg" width="17" height="17" viewBox="0 0 17 17"><g><g><path fill="#998a7a" d="M16.717 9.914l-6.709 6.791a.964.964 0 0 1-.68.284.943.943 0 0 1-.4-.089c-.084-.037-.218-.097-8.54-8.39l-.069-.066a.986.986 0 0 1-.284-.682l-.033-6.76A.971.971 0 0 1 .956.03l6.627-.037c.255 0 .55.034.802.285l8.327 8.268a.957.957 0 0 1 .285.683c.001.258-.099.501-.28.684zm-.504-.862L7.886.784C7.833.732 7.772.705 7.583.705l-.318.007-6.302.03a.254.254 0 0 0-.252.256l.033 6.76c0 .067.028.133.077.182l.066.067c4.857 4.839 8.152 8.089 8.393 8.28-.02-.017.013-.01.048-.01.065 0 .131-.027.176-.073l6.71-6.792a.254.254 0 0 0 0-.36zM3.941 5.676c-.463 0-.898-.18-1.227-.51a1.745 1.745 0 0 1 0-2.46c.658-.656 1.8-.656 2.454 0 .327.33.508.766.508 1.231 0 .465-.18.901-.508 1.23-.328.328-.764.51-1.227.51zm.725-2.467c-.194-.194-.45-.3-.725-.3-.274 0-.531.106-.725.301-.4.4-.4 1.053 0 1.454a1.047 1.047 0 0 0 1.45 0c.194-.195.3-.452.3-.727 0-.275-.106-.533-.3-.728z"/></g></g></svg>