<svg xmlns="http://www.w3.org/2000/svg" width="17" height="17" viewBox="0 0 17 17"><g><g><path fill="#998a7a" d="M16.648 5.692H.36a.353.353 0 1 1-.188-.656L8.317.048a.36.36 0 0 1 .376 0l8.078 4.956a.355.355 0 0 1-.123.688zM8.505.766L1.62 4.983h13.757zM2.43 14.56a.356.356 0 0 1-.358-.355V7.71c0-.196.16-.355.358-.355h2.4c.199 0 .359.159.359.355v6.495c0 .197-.16.355-.358.355zm2.043-6.496H2.79v5.787h1.685zm2.69 6.496a.356.356 0 0 1-.358-.355V7.71c0-.196.16-.355.358-.355h2.4c.199 0 .358.159.358.355v6.495c0 .197-.16.355-.357.355zm2.043-6.496H7.522v5.787h1.685zM1.36 16.29h14.274c.198 0 .358.159.358.355 0 .196-.16.355-.358.355H1.36a.356.356 0 0 1-.358-.355c0-.196.16-.355.358-.355zm10.804-1.73a.356.356 0 0 1-.358-.355V7.71c0-.196.16-.355.358-.355h2.4c.199 0 .358.159.358.355v6.495c0 .197-.16.355-.357.355zm2.043-6.496h-1.685v5.787h1.685z"/></g></g></svg>