<svg xmlns="http://www.w3.org/2000/svg" width="15" height="21" viewBox="0 0 15 21"><g><g><path fill="#998a7a" d="M13.987 7.663l.969 1.714a.446.446 0 0 1-.16.608l-1.677.992v1.98a.44.44 0 0 1-.436.445h-1.937l-.97 1.715a.438.438 0 0 1-.377.222.424.424 0 0 1-.218-.06l-1.677-.99-1.678.99a.43.43 0 0 1-.595-.162l-.97-1.715H2.325a.44.44 0 0 1-.436-.445v-1.98L.211 9.986a.446.446 0 0 1-.16-.609l.97-1.714-.97-1.715a.446.446 0 0 1 .16-.608l1.677-.99V2.37a.44.44 0 0 1 .436-.446h1.938l.97-1.715a.431.431 0 0 1 .595-.163l1.677.99L9.18.046a.431.431 0 0 1 .595.163l.97 1.715h1.937c.241 0 .436.199.436.446v1.98l1.678.99a.446.446 0 0 1 .159.608zm-.88-.223l.877-1.552-1.519-.896a.446.446 0 0 1-.218-.385V2.815h-1.753a.434.434 0 0 1-.377-.223L9.24 1.04l-1.518.896a.425.425 0 0 1-.436 0L5.767 1.04l-.876 1.552a.434.434 0 0 1-.377.223H2.76v1.792c0 .159-.083.306-.218.385l-1.518.896L1.9 7.44a.452.452 0 0 1 0 .445l-.876 1.553 1.518.895a.447.447 0 0 1 .218.386v1.792h1.754c.155 0 .3.085.377.222l.876 1.553 1.519-.896a.427.427 0 0 1 .436 0l1.518.896.877-1.553a.434.434 0 0 1 .377-.222h1.753v-1.792c0-.16.084-.307.218-.386l1.519-.895-.877-1.553a.452.452 0 0 1 0-.445zm-5.603 4.754c-2.445 0-4.433-2.033-4.433-4.531 0-2.498 1.988-4.53 4.433-4.53 2.444 0 4.433 2.032 4.433 4.53s-1.989 4.53-4.433 4.53zm0-8.17c-1.964 0-3.562 1.632-3.562 3.639 0 2.007 1.598 3.64 3.562 3.64 1.963 0 3.561-1.633 3.561-3.64s-1.598-3.64-3.561-3.64zM1.936 14.246a.434.434 0 0 1 .559-.266c.226.085.343.34.26.57l-1.387 3.896 1.74-.335c.158-.03.317.03.418.155l1.122 1.4L5.954 16a.433.433 0 0 1 .558-.266c.227.084.343.34.26.57l-1.567 4.403a.44.44 0 0 1-.41.293.431.431 0 0 1-.337-.163l-1.442-1.8-2.238.43a.426.426 0 0 1-.413-.149.452.452 0 0 1-.078-.44zm6.582 1.487a.433.433 0 0 1 .559.266l1.306 3.668 1.122-1.4a.433.433 0 0 1 .418-.156l1.74.335-1.388-3.895a.448.448 0 0 1 .261-.57.433.433 0 0 1 .558.265l1.65 4.63a.452.452 0 0 1-.078.441.434.434 0 0 1-.412.15l-2.238-.432-1.444 1.8a.431.431 0 0 1-.746-.129l-1.568-4.403a.447.447 0 0 1 .26-.57z"/></g></g></svg>