<svg xmlns="http://www.w3.org/2000/svg" width="12.75" height="18.969" viewBox="0 0 12.75 18.969"><path d="M6.76 16.294a.468.468 0 0 1-.769 0C5.747 15.934.01 9.432.01 6.169a6.368 6.368 0 0 1 12.731 0c0 3.263-5.737 9.765-5.981 10.125zM6.375.882A5.374 5.374 0 0 0 .93 6.169c0 2.541 4.145 7.07 5.446 9.055 1.3-1.985 5.446-6.514 5.446-9.055A5.374 5.374 0 0 0 6.375.882zm0 6.878a2.217 2.217 0 1 1 2.283-2.216A2.253 2.253 0 0 1 6.375 7.76zm0-3.54a1.324 1.324 0 1 0 1.363 1.324A1.346 1.346 0 0 0 6.375 4.22zm-2.8 10.332a.463.463 0 0 1 .539.354.449.449 0 0 1-.365.523c-1.816.341-2.492.921-2.492 1.207 0 .572 2.041 1.437 5.117 1.437s5.117-.865 5.117-1.437c0-.284-.671-.86-2.471-1.2a.446.446 0 0 1-.363-.523.455.455 0 0 1 .539-.352c2.043.388 3.215 1.146 3.215 2.079.001 1.529-3.036 2.329-6.036 2.329s-6.037-.8-6.037-2.33c0-.94 1.181-1.7 3.237-2.087z" fill="#d9b898" fill-rule="evenodd" /></svg>