<svg xmlns="http://www.w3.org/2000/svg" width="17" height="17" viewBox="0 0 17 17"><g><g><path fill="#0f294d" d="M14.97 17H2.03C.91 17 0 16.09 0 14.97V2.03c0-1.12.91-2.03 2.03-2.03h12.94C16.09 0 17 .91 17 2.03V14.97c0 1.12-.91 2.03-2.03 2.03zm1.322-14.971c0-.729-.593-1.322-1.322-1.322H2.03C1.3.707.708 1.3.708 2.03V14.97c0 .73.593 1.322 1.322 1.322h12.94c.729 0 1.322-.593 1.322-1.322zM12.75 14.162a1.41 1.41 0 0 1-1.409-1.409c0-.777.632-1.41 1.41-1.41a1.41 1.41 0 0 1 0 2.818zm0-2.11a.702.702 0 1 0 .002 1.403.702.702 0 0 0-.002-1.403zm0-2.14a1.41 1.41 0 0 1 0-2.819 1.41 1.41 0 0 1 0 2.819zm0-2.11a.702.702 0 1 0 .002 1.403.702.702 0 0 0-.002-1.404zm0-2.14a1.411 1.411 0 0 1-1.409-1.41 1.41 1.41 0 0 1 2.818 0c0 .777-.632 1.41-1.409 1.41zm0-2.11a.702.702 0 1 0 .003 1.403.702.702 0 0 0-.003-1.403zM8.5 14.162a1.41 1.41 0 0 1-1.41-1.409c0-.777.633-1.41 1.41-1.41a1.41 1.41 0 0 1 0 2.818zm0-2.11a.702.702 0 1 0 .002 1.403.702.702 0 0 0-.002-1.403zm0-2.14a1.41 1.41 0 0 1 0-2.819 1.41 1.41 0 0 1 0 2.819zm0-2.11a.702.702 0 1 0 .002 1.403.702.702 0 0 0-.002-1.404zm0-2.14a1.41 1.41 0 0 1 0-2.818c.777 0 1.41.632 1.41 1.409 0 .776-.633 1.409-1.41 1.409zm0-2.11a.702.702 0 0 0 0 1.402.702.702 0 0 0 0-1.402zm-4.25 10.61a1.41 1.41 0 0 1-1.41-1.409c0-.777.633-1.41 1.41-1.41a1.41 1.41 0 0 1 0 2.818zm0-2.11a.702.702 0 1 0 .001 1.404.702.702 0 0 0-.001-1.404zm0-2.14a1.41 1.41 0 0 1 0-2.819 1.41 1.41 0 0 1 0 2.819zm0-2.11a.702.702 0 1 0 .002 1.403.702.702 0 0 0-.002-1.404zm0-2.14a1.41 1.41 0 0 1 0-2.818c.777 0 1.409.632 1.409 1.409 0 .776-.632 1.409-1.409 1.409zm0-2.11a.702.702 0 0 0 0 1.402.702.702 0 0 0 0-1.402z"/></g></g></svg>