<svg xmlns="http://www.w3.org/2000/svg" xmlns:xlink="http://www.w3.org/1999/xlink" width="31px" height="36px"><path fill-rule="evenodd" fill="#bf9e7c" d="M30.597,23.036 L24.164,16.468 C23.829,16.125 23.472,16.053 23.230,16.053 C22.837,16.053 22.452,16.238 22.086,16.599 C21.658,17.024 20.429,18.240 20.299,18.316 C19.419,18.316 17.038,16.516 15.169,14.108 C13.934,12.517 13.766,11.709 13.748,11.632 L15.707,9.690 C15.969,9.430 16.114,9.083 16.116,8.712 C16.118,8.343 15.978,7.996 15.725,7.736 L9.318,1.133 C8.813,0.607 7.912,0.592 7.382,1.113 C7.167,1.326 6.943,1.539 6.715,1.756 C5.127,3.265 3.327,4.976 3.269,7.826 C3.201,11.232 5.669,15.396 11.037,20.928 C14.681,24.687 19.432,28.998 23.857,28.998 L23.858,28.998 C25.239,28.998 26.505,28.560 27.643,27.737 C27.780,28.849 27.636,30.736 25.756,32.638 C24.780,33.624 23.639,33.825 22.834,33.784 C21.382,33.745 19.897,33.025 18.841,31.836 L8.102,20.703 C7.088,19.874 4.596,18.854 2.406,20.931 C2.403,20.936 2.300,21.037 2.297,21.040 C1.447,21.895 0.978,23.034 0.977,24.248 C0.975,25.461 1.441,26.602 2.289,27.458 L6.039,31.249 C6.323,31.536 6.783,31.536 7.067,31.249 C7.350,30.962 7.350,30.498 7.067,30.211 L3.317,26.419 C2.743,25.840 2.428,25.070 2.430,24.249 C2.430,23.429 2.748,22.660 3.407,21.997 C5.173,20.320 6.989,21.687 7.125,21.786 L17.780,32.839 C19.076,34.300 20.952,35.203 22.795,35.253 C22.851,35.254 22.907,35.256 22.962,35.256 C24.441,35.256 25.760,34.711 26.783,33.676 C29.657,30.771 29.227,27.804 28.905,26.650 C29.472,26.092 30.556,25.025 30.622,24.952 C31.124,24.411 31.115,23.569 30.597,23.036 ZM27.578,25.906 L27.453,26.023 C26.383,27.038 25.208,27.530 23.858,27.530 L23.857,27.530 C19.972,27.530 15.520,23.453 12.075,19.902 C7.068,14.740 4.663,10.800 4.722,7.855 C4.767,5.623 6.263,4.202 7.710,2.826 C7.946,2.602 8.178,2.381 8.279,2.160 L14.688,8.641 L12.712,10.602 C12.253,11.091 12.227,11.823 12.633,12.777 C13.676,15.228 18.023,19.785 20.299,19.785 C20.568,19.785 20.813,19.729 21.016,19.625 C21.081,19.593 21.242,19.481 21.295,19.431 C21.417,19.316 22.669,18.080 23.104,17.649 C23.142,17.611 23.174,17.583 23.194,17.563 L29.568,23.941 C29.455,24.058 27.687,25.803 27.578,25.906 Z" /></svg>