<svg xmlns="http://www.w3.org/2000/svg" width="17" height="15" viewBox="0 0 17 15"><g><g><path fill="#0f294d" d="M16.992 4.614a4.61 4.61 0 0 1-1.332 3.26l-6.915 7.007a.356.356 0 0 1-.508 0L1.322 7.875A4.61 4.61 0 0 1-.01 4.615c0-1.232.474-2.39 1.333-3.26A4.49 4.49 0 0 1 4.54.004a4.49 4.49 0 0 1 3.217 1.35l.734.743.734-.744a4.49 4.49 0 0 1 3.217-1.35c1.215 0 2.358.48 3.218 1.35a4.611 4.611 0 0 1 1.332 3.26zm-.718 0a3.883 3.883 0 0 0-1.122-2.745 3.785 3.785 0 0 0-2.71-1.137A3.782 3.782 0 0 0 9.733 1.87L8.745 2.87a.356.356 0 0 1-.508 0l-.988-1A3.782 3.782 0 0 0 4.539.731 3.782 3.782 0 0 0 1.83 1.87 3.883 3.883 0 0 0 .707 4.614 3.88 3.88 0 0 0 1.83 7.36l6.661 6.749 6.66-6.75a3.883 3.883 0 0 0 1.123-2.745z"/></g></g></svg>