<svg xmlns="http://www.w3.org/2000/svg" width="30" height="28" viewBox="0 0 30 28"><defs><linearGradient id="lzyqa" x1="15" x2="15" y1="27.84" y2=".15" gradientUnits="userSpaceOnUse"><stop offset="0" stop-color="#ca6"/><stop offset=".5" stop-color="#e6d6b8"/><stop offset="1" stop-color="#ca6"/></linearGradient></defs><g><g><path fill="#fff" d="M27.115 14.284a3.766 3.766 0 0 1-3.759 3.754h-7.05l-5.344 5.15v-5.15H6.626a3.75 3.75 0 0 1-3.74-3.754v-7.5a3.742 3.742 0 0 1 3.74-3.745h16.73c2.068 0 3.759 1.677 3.759 3.745zM23.356.154H6.626A6.63 6.63 0 0 0 0 6.784v7.5c0 3.658 2.966 6.639 6.625 6.639h1.451v5.475a1.44 1.44 0 0 0 1.438 1.444c.78 0 .362.004 7.954-6.92h5.887c3.659 0 6.643-2.98 6.643-6.638v-7.5c0-3.658-2.984-6.63-6.643-6.63z"/><path fill="url(#lzyqa)" d="M27.115 14.284a3.766 3.766 0 0 1-3.759 3.754h-7.05l-5.344 5.15v-5.15H6.626a3.75 3.75 0 0 1-3.74-3.754v-7.5a3.742 3.742 0 0 1 3.74-3.745h16.73c2.068 0 3.759 1.677 3.759 3.745zM23.356.154H6.626A6.63 6.63 0 0 0 0 6.784v7.5c0 3.658 2.966 6.639 6.625 6.639h1.451v5.475a1.44 1.44 0 0 0 1.438 1.444c.78 0 .362.004 7.954-6.92h5.887c3.659 0 6.643-2.98 6.643-6.638v-7.5c0-3.658-2.984-6.63-6.643-6.63z"/></g></g></svg>