<svg xmlns="http://www.w3.org/2000/svg" width="30" height="23" viewBox="0 0 30 23"><g><g><path fill="#fff" d="M26.438 23H3.553C1.56 23 0 21.435 0 19.437V3.567C0 1.566 1.56 0 3.553 0h22.885C28.402 0 30 1.6 30 3.566v15.871A3.566 3.566 0 0 1 26.438 23zM28.75 3.566c0-1.283-1.016-2.288-2.312-2.288H3.553c-1.292 0-2.303 1.005-2.303 2.288v15.871c0 1.282 1.011 2.285 2.303 2.285h22.885c1.296 0 2.312-1.003 2.312-2.285zm-12.127 9.672a2.604 2.604 0 0 1-1.762.68 2.6 2.6 0 0 1-1.761-.68L3.19 4.13a.648.648 0 0 1-.045-.902.615.615 0 0 1 .882-.048l9.908 9.107c.511.47 1.341.47 1.852 0l9.909-9.107a.613.613 0 0 1 .882.048.648.648 0 0 1-.046.902zm-6.776-.025a.615.615 0 0 1 .88.084.648.648 0 0 1-.08.9L4.01 19.84a.618.618 0 0 1-.88-.084.648.648 0 0 1 .08-.9zm10.03 0l6.637 5.644a.648.648 0 0 1 .08.9.617.617 0 0 1-.88.084l-6.638-5.644a.648.648 0 0 1-.08-.9c.22-.27.615-.31.88-.084z"/></g></g></svg>