<svg xmlns="http://www.w3.org/2000/svg" width="19" height="20" viewBox="0 0 19 20"><defs><linearGradient id="plgqa" x1="9.48" x2="9.49" y1="19.95" y2=".03" gradientUnits="userSpaceOnUse"><stop offset="0" stop-color="#ca6"/><stop offset=".5" stop-color="#e6d6b8"/><stop offset="1" stop-color="#ca6"/></linearGradient></defs><g><g><path fill="#565d64" d="M17.692 12.179c.093-.383.788-1.112.788-2.435 0-1.751-1.208-2.797-3.154-2.797-1.593-.001-3.232.21-3.311-.737-.116-1.4 1.184-2.237 1.096-3.771A2.473 2.473 0 0 0 11.814.37c-.875-.48-1.916-.46-2.832.053-.862.482-2.682 2.722-3.3 3.491C4.146 5.831 2.784 7.502.485 7.71v1.918c3.449-.21 5.068-2.49 6.81-4.66 1.301-1.622 2.362-2.71 2.625-2.872.334-.187.683-.205.974-.045.588.322.198.996-.108 1.573-1.71 3.225-.013 5.196 2.424 5.196 2.47 0 3.354-.182 3.354.924 0 .757-.405.887-.67 1.982-.26 1.069.147 1.448-.15 2.463-.094.32-.322.513-.628.856-.19.212-.406.453-.616.765-.633.941-.267 1.376-1.307 1.869-.936.443-3.574.728-6.16-.79-1.46-.856-4.249-.772-6.548-.758v1.898l.365-.003c1.703-.013 4.273-.03 5.21.52 1.586.93 3.295 1.406 5.055 1.406 2.162 0 4.025-.593 4.766-2.605.133-.361.14-.44.663-1.025 1.742-1.948.958-3.364 1.148-4.143z"/><path fill="url(#plgqa)" d="M17.692 12.179c.093-.383.788-1.112.788-2.435 0-1.751-1.208-2.797-3.154-2.797-1.593-.001-3.232.21-3.311-.737-.116-1.4 1.184-2.237 1.096-3.771A2.473 2.473 0 0 0 11.814.37c-.875-.48-1.916-.46-2.832.053-.862.482-2.682 2.722-3.3 3.491C4.146 5.831 2.784 7.502.485 7.71v1.918c3.449-.21 5.068-2.49 6.81-4.66 1.301-1.622 2.362-2.71 2.625-2.872.334-.187.683-.205.974-.045.588.322.198.996-.108 1.573-1.71 3.225-.013 5.196 2.424 5.196 2.47 0 3.354-.182 3.354.924 0 .757-.405.887-.67 1.982-.26 1.069.147 1.448-.15 2.463-.094.32-.322.513-.628.856-.19.212-.406.453-.616.765-.633.941-.267 1.376-1.307 1.869-.936.443-3.574.728-6.16-.79-1.46-.856-4.249-.772-6.548-.758v1.898l.365-.003c1.703-.013 4.273-.03 5.21.52 1.586.93 3.295 1.406 5.055 1.406 2.162 0 4.025-.593 4.766-2.605.133-.361.14-.44.663-1.025 1.742-1.948.958-3.364 1.148-4.143z"/></g></g></svg>