<svg xmlns="http://www.w3.org/2000/svg" width="14" height="19" viewBox="0 0 14 19"><path d="M7 19a6.9 6.9 0 0 1-6.988-6.8 6.753 6.753 0 0 1 3.077-5.634V3.8a3.912 3.912 0 0 1 7.822 0v2.756a6.754 6.754 0 0 1 3.076 5.634A6.9 6.9 0 0 1 7 19zm3.077-15.2a3.079 3.079 0 0 0-6.155 0v2.3a7.073 7.073 0 0 1 6.155 0V3.8zM7 6.2a5.993 5.993 0 1 0 6.153 5.991A6.081 6.081 0 0 0 7 6.2zm-.412 6.488a1.64 1.64 0 0 1-.768-2.779 1.706 1.706 0 0 1 1.2-.493 1.684 1.684 0 0 1 1.2.482 1.624 1.624 0 0 1 .49 1.175 1.731 1.731 0 0 1-1.288 1.608l-.011 1.985a.417.417 0 0 1-.42.407.407.407 0 0 1-.41-.41zm.421-.76a.879.879 0 0 0 .612-.251.845.845 0 0 0 .255-.6.828.828 0 0 0-.25-.6.859.859 0 0 0-.61-.245.886.886 0 0 0-.867.852.848.848 0 0 0 .86.846z" fill="#d9b898" fill-rule="evenodd"/></svg>