<svg xmlns="http://www.w3.org/2000/svg" width="21" height="19" viewBox="0 0 21 19"><g><g><path fill="gray" d="M8.931 5.665a1.569 1.569 0 1 1 3.137 0 1.569 1.569 0 0 1-3.137 0zm-2.44-.024c0 1.767.824 3.182 2.248 5.029.408.53 1.19 1.53 1.761 2.259a470.41 470.41 0 0 0 1.761-2.26c1.424-1.846 2.248-3.26 2.248-5.028 0-2.197-1.799-3.985-4.009-3.985-2.21 0-4.009 1.788-4.009 3.985zm.867 6.093c-1.32-1.713-2.61-3.595-2.61-6.093 0-3.158 2.58-5.727 5.752-5.728 3.172 0 5.752 2.57 5.752 5.728 0 2.498-1.29 4.38-2.61 6.093-.693.899-2.456 3.145-2.456 3.145l-.686.874-.686-.873s-1.763-2.247-2.456-3.146zM20.5 19.086H.5l3.054-7.669h1.84c.282.407.572.795.86 1.168.12.156.274.356.445.575H4.736L3.07 17.343h14.86l-1.666-4.183H14.3c.17-.22.325-.418.445-.575.287-.372.578-.761.86-1.168h1.84z"/></g></g></svg>