<svg xmlns="http://www.w3.org/2000/svg" width="41" height="29" viewBox="0 0 41 29"><defs><linearGradient id="xu9ga" x1="20.5" x2="20.5" y1="28.6" y2=".4" gradientUnits="userSpaceOnUse"><stop offset="0" stop-color="#ca6"/><stop offset=".5" stop-color="#e6d6b8"/><stop offset="1" stop-color="#ca6"/></linearGradient></defs><g><g><path fill="#fff" d="M28.639 11.55c0-2.624-3.935-2.624-3.935 0 0 2.622 3.935 2.622 3.935 0zm-18.36 0c0-2.624-3.935-2.624-3.935 0 0 2.622 3.935 2.622 3.935 0zm7.212-1.975a1.97 1.97 0 0 1 1.968 1.967 1.97 1.97 0 0 1-1.968 1.968 1.97 1.97 0 0 1-1.967-1.968 1.97 1.97 0 0 1 1.967-1.967zm0 7.213a5.252 5.252 0 0 0 5.246-5.246 5.252 5.252 0 0 0-5.246-5.245 5.251 5.251 0 0 0-5.245 5.245 5.252 5.252 0 0 0 5.245 5.246zm19.73-11.796V25.32H5.09v3.279h35.408V4.992zm-5.902 14.426H3.78V3.68h27.54zM34.597.402H.501v22.294h34.096z"/><path fill="url(#xu9ga)" d="M28.639 11.55c0-2.624-3.935-2.624-3.935 0 0 2.622 3.935 2.622 3.935 0zm-18.36 0c0-2.624-3.935-2.624-3.935 0 0 2.622 3.935 2.622 3.935 0zm7.212-1.975a1.97 1.97 0 0 1 1.968 1.967 1.97 1.97 0 0 1-1.968 1.968 1.97 1.97 0 0 1-1.967-1.968 1.97 1.97 0 0 1 1.967-1.967zm0 7.213a5.252 5.252 0 0 0 5.246-5.246 5.252 5.252 0 0 0-5.246-5.245 5.251 5.251 0 0 0-5.245 5.245 5.252 5.252 0 0 0 5.245 5.246zm19.73-11.796V25.32H5.09v3.279h35.408V4.992zm-5.902 14.426H3.78V3.68h27.54zM34.597.402H.501v22.294h34.096z"/></g></g></svg>