<svg xmlns="http://www.w3.org/2000/svg" width="23" height="17" viewBox="0 0 23 17"><defs><linearGradient id="704xa" x1="11.5" x2="11.5" y1="16.25" y2=".74" gradientUnits="userSpaceOnUse"><stop offset="0" stop-color="#ca6"/><stop offset=".5" stop-color="#e6d6b8"/><stop offset="1" stop-color="#ca6"/></linearGradient></defs><g><g><path fill="#fff" d="M15.977 6.877c0-1.443-2.164-1.443-2.164 0s2.164 1.443 2.164 0zm-10.1 0c0-1.443-2.164-1.443-2.164 0s2.164 1.443 2.164 0zM9.845 5.79a1.083 1.083 0 0 1 0 2.164 1.083 1.083 0 0 1 0-2.164zm0 3.968a2.889 2.889 0 0 0 2.886-2.886 2.889 2.889 0 0 0-2.886-2.886A2.889 2.889 0 0 0 6.96 6.873a2.889 2.889 0 0 0 2.886 2.886zm10.853-6.49v11.182H3.024v1.804H22.5V3.27zm-3.247 7.936H2.302V2.55h15.15zM19.255.745H.499v12.263h18.756z"/><path fill="url(#704xa)" d="M15.977 6.877c0-1.443-2.164-1.443-2.164 0s2.164 1.443 2.164 0zm-10.1 0c0-1.443-2.164-1.443-2.164 0s2.164 1.443 2.164 0zM9.845 5.79a1.083 1.083 0 0 1 0 2.164 1.083 1.083 0 0 1 0-2.164zm0 3.968a2.889 2.889 0 0 0 2.886-2.886 2.889 2.889 0 0 0-2.886-2.886A2.889 2.889 0 0 0 6.96 6.873a2.889 2.889 0 0 0 2.886 2.886zm10.853-6.49v11.182H3.024v1.804H22.5V3.27zm-3.247 7.936H2.302V2.55h15.15zM19.255.745H.499v12.263h18.756z"/></g></g></svg>