<svg xmlns="http://www.w3.org/2000/svg" xmlns:xlink="http://www.w3.org/1999/xlink" width="30px" height="30px"><path fill-rule="evenodd" fill="#bf9e7c" d="M29.224,4.423 L25.549,0.739 C24.558,-0.256 22.827,-0.256 21.836,0.739 L3.197,19.426 C3.170,19.453 3.145,19.482 3.098,19.576 C3.080,19.610 3.062,19.642 3.051,19.678 C2.831,20.175 2.236,21.805 0.114,27.812 C-0.120,28.378 0.028,29.045 0.491,29.512 C0.809,29.833 1.214,30.000 1.613,30.000 C1.794,30.000 1.974,29.966 2.144,29.896 C8.219,27.780 9.846,27.195 10.338,26.979 C10.373,26.967 10.404,26.951 10.436,26.933 C10.528,26.887 10.557,26.861 10.585,26.833 L29.224,8.145 C29.720,7.649 29.993,6.988 29.993,6.284 C29.993,5.581 29.720,4.919 29.224,4.423 ZM7.132,24.262 C7.132,24.263 7.132,24.263 7.132,24.263 C7.132,24.263 7.133,24.263 7.133,24.264 L9.007,26.143 C7.855,26.559 5.734,27.306 3.733,28.007 L1.995,26.265 C2.702,24.274 3.460,22.153 3.881,21.003 L7.132,24.262 ZM1.700,28.717 C1.556,28.776 1.430,28.671 1.382,28.623 C1.300,28.540 1.231,28.402 1.287,28.264 C1.365,28.044 1.446,27.814 1.529,27.580 L2.414,28.468 C2.170,28.553 1.930,28.637 1.700,28.717 ZM28.335,7.254 L10.140,25.497 L8.466,23.818 L23.233,9.010 C23.479,8.764 23.479,8.365 23.233,8.119 C22.988,7.873 22.590,7.873 22.345,8.119 L7.577,22.926 L4.530,19.872 L22.725,1.630 C23.242,1.111 24.143,1.111 24.660,1.630 L28.335,5.314 C28.593,5.573 28.736,5.918 28.736,6.284 C28.736,6.650 28.593,6.995 28.335,7.254 Z" /></svg>