<svg xmlns="http://www.w3.org/2000/svg" width="19" height="19" viewBox="0 0 19 19"><defs><linearGradient id="uv3xa" x1="9.08" x2="10.07" y1="19.11" y2=".11" gradientUnits="userSpaceOnUse"><stop offset="0" stop-color="#ca6"/><stop offset=".5" stop-color="#e6d6b8"/><stop offset="1" stop-color="#ca6"/></linearGradient></defs><g><g><path fill="#fff" d="M19.077 19.113l-8.439-2.842-6.867-6.867 1.216-1.217 6.583 6.582 3.54 1.193.816-.815-1.193-3.54-6.582-6.583 1.216-1.217 6.868 6.868zm-6.853-5.637L5.96 7.214l1.216-1.217 6.263 6.263c.806.804-.412 2.02-1.216 1.216zM5.96 2.834l-.852-.851a.52.52 0 0 0-.73 0c-3.152 3.15-3.087 2.509-1.582 4.014zm2.433 0L2.797 8.43.73 6.362a2.24 2.24 0 0 1 0-3.163C3.235.694 3.554.112 4.744.112c1.165 0 1.478.55 3.65 2.722z"/><path fill="url(#uv3xa)" d="M19.077 19.113l-8.439-2.842-6.867-6.867 1.216-1.217 6.583 6.582 3.54 1.193.816-.815-1.193-3.54-6.582-6.583 1.216-1.217 6.868 6.868zm-6.853-5.637L5.96 7.214l1.216-1.217 6.263 6.263c.806.804-.412 2.02-1.216 1.216zM5.96 2.834l-.852-.851a.52.52 0 0 0-.73 0c-3.152 3.15-3.087 2.509-1.582 4.014zm2.433 0L2.797 8.43.73 6.362a2.24 2.24 0 0 1 0-3.163C3.235.694 3.554.112 4.744.112c1.165 0 1.478.55 3.65 2.722z"/></g></g></svg>