<svg xmlns="http://www.w3.org/2000/svg" width="20" height="19" viewBox="0 0 20 19"><defs><linearGradient id="kts6a" x1=".12" x2="20.12" y1="9.5" y2="9.5" gradientUnits="userSpaceOnUse"><stop offset="0" stop-color="#ca6"/><stop offset=".5" stop-color="#e6d6b8"/><stop offset="1" stop-color="#ca6"/></linearGradient></defs><g><g><path fill="gray" d="M15.293 16.734a2.826 2.826 0 0 1-2.823-2.823 2.827 2.827 0 0 1 2.823-2.824 2.827 2.827 0 0 1 2.824 2.824 2.826 2.826 0 0 1-2.824 2.823zm0-7.41a4.593 4.593 0 0 0-4.587 4.587 4.593 4.593 0 0 0 4.587 4.587 4.593 4.593 0 0 0 4.588-4.587 4.593 4.593 0 0 0-4.588-4.588zM15.727.5L2.004 18.498h2.219L17.946.5zM1.883 5.088a2.827 2.827 0 0 1 2.823-2.823A2.827 2.827 0 0 1 7.53 5.088a2.826 2.826 0 0 1-2.824 2.823 2.826 2.826 0 0 1-2.823-2.823zm7.411 0A4.593 4.593 0 0 0 4.706.5 4.593 4.593 0 0 0 .12 5.088a4.593 4.593 0 0 0 4.587 4.588 4.593 4.593 0 0 0 4.588-4.588z"/><path fill="url(#kts6a)" d="M15.293 16.734a2.826 2.826 0 0 1-2.823-2.823 2.827 2.827 0 0 1 2.823-2.824 2.827 2.827 0 0 1 2.824 2.824 2.826 2.826 0 0 1-2.824 2.823zm0-7.41a4.593 4.593 0 0 0-4.587 4.587 4.593 4.593 0 0 0 4.587 4.587 4.593 4.593 0 0 0 4.588-4.587 4.593 4.593 0 0 0-4.588-4.588zM15.727.5L2.004 18.498h2.219L17.946.5zM1.883 5.088a2.827 2.827 0 0 1 2.823-2.823A2.827 2.827 0 0 1 7.53 5.088a2.826 2.826 0 0 1-2.824 2.823 2.826 2.826 0 0 1-2.823-2.823zm7.411 0A4.593 4.593 0 0 0 4.706.5 4.593 4.593 0 0 0 .12 5.088a4.593 4.593 0 0 0 4.587 4.588 4.593 4.593 0 0 0 4.588-4.588z"/></g></g></svg>