<svg xmlns="http://www.w3.org/2000/svg" width="21" height="16" viewBox="0 0 21 16"><g><g><path fill="#998a7a" d="M19.869 16H1.13A1.142 1.142 0 0 1 0 14.85V1.15C0 .515.508 0 1.131 0H19.87C20.492 0 21 .515 21 1.15v13.7c0 .634-.508 1.15-1.131 1.15zm.256-14.85a.26.26 0 0 0-.256-.261H1.13a.26.26 0 0 0-.256.26v13.702c0 .143.115.26.256.26h3.444l5.914-8.464a.437.437 0 0 1 .353-.187h.004c.138 0 .27.067.351.18l2.121 2.907 2.873-4.59a.436.436 0 0 1 .361-.206.44.44 0 0 1 .369.193l3.204 4.733zm0 10.096L16.575 6l-2.86 4.568a.436.436 0 0 1-.354.206.464.464 0 0 1-.367-.18l-2.14-2.934-5.205 7.45h14.22a.26.26 0 0 0 .256-.26zM5.655 8.093c-1.247 0-2.262-1.031-2.262-2.299 0-1.267 1.015-2.298 2.263-2.298 1.247 0 2.262 1.03 2.262 2.298S6.903 8.093 5.656 8.093zm0-3.708a1.4 1.4 0 0 0-1.387 1.41c0 .776.623 1.409 1.388 1.409a1.4 1.4 0 0 0 1.387-1.41 1.4 1.4 0 0 0-1.387-1.409z"/></g></g></svg>