<svg xmlns="http://www.w3.org/2000/svg" width="21" height="21" viewBox="0 0 21 21"><defs><linearGradient id="yzata" x1="10.5" x2="10.5" y1="20.5" y2=".5" gradientUnits="userSpaceOnUse"><stop offset="0" stop-color="#ca6"/><stop offset=".5" stop-color="#e6d6b8"/><stop offset="1" stop-color="#ca6"/></linearGradient></defs><g><g><path fill="gray" d="M18.617 10.5c0-4.475-3.642-8.117-8.117-8.117a8.066 8.066 0 0 0-5.74 2.378A8.065 8.065 0 0 0 2.383 10.5c0 4.475 3.642 8.116 8.117 8.116h.002a8.06 8.06 0 0 0 5.738-2.377 8.066 8.066 0 0 0 2.377-5.74zm1.884 0a9.938 9.938 0 0 1-2.928 7.072 9.935 9.935 0 0 1-7.072 2.93H10.5C4.985 20.501.499 16.014.499 10.5a9.935 9.935 0 0 1 2.93-7.072 9.936 9.936 0 0 1 7.07-2.93c5.516 0 10.002 4.487 10.002 10.002zm-6.667-2.55c0 2.033-2.354 2.514-2.354 3.923v.392H9.52v-.642c0-2.05 2.192-2.425 2.335-3.583.096-.779-.375-1.266-1.159-1.266S9.52 7.558 9.52 8.343H7.56c0-1.961 1.355-3.138 3.137-3.138 1.8 0 3.138 1.177 3.138 2.746zM9.52 13.442h1.96v1.961H9.52z"/><path fill="url(#yzata)" d="M18.617 10.5c0-4.475-3.642-8.117-8.117-8.117a8.066 8.066 0 0 0-5.74 2.378A8.065 8.065 0 0 0 2.383 10.5c0 4.475 3.642 8.116 8.117 8.116h.002a8.06 8.06 0 0 0 5.738-2.377 8.066 8.066 0 0 0 2.377-5.74zm1.884 0a9.938 9.938 0 0 1-2.928 7.072 9.935 9.935 0 0 1-7.072 2.93H10.5C4.985 20.501.499 16.014.499 10.5a9.935 9.935 0 0 1 2.93-7.072 9.936 9.936 0 0 1 7.07-2.93c5.516 0 10.002 4.487 10.002 10.002zm-6.667-2.55c0 2.033-2.354 2.514-2.354 3.923v.392H9.52v-.642c0-2.05 2.192-2.425 2.335-3.583.096-.779-.375-1.266-1.159-1.266S9.52 7.558 9.52 8.343H7.56c0-1.961 1.355-3.138 3.137-3.138 1.8 0 3.138 1.177 3.138 2.746zM9.52 13.442h1.96v1.961H9.52z"/></g></g></svg>