<svg xmlns="http://www.w3.org/2000/svg" width="18" height="17" viewBox="0 0 18 17"><defs><linearGradient id="pz95a" x1="9" x2="9" y1="16.67" y2=".33" gradientUnits="userSpaceOnUse"><stop offset="0" stop-color="#ca6"/><stop offset=".5" stop-color="#e6d6b8"/><stop offset="1" stop-color="#ca6"/></linearGradient></defs><g><g><path fill="#fff" d="M3.813 2.99c-.523.522-1.482 1.389-2.148 2.158V2.011H0v5.986h5.998V6.342h-3.17C5.252 4.01 6.656 2.009 9.83 2.009c3.585 0 6.502 2.913 6.502 6.495 0 3.581-2.917 6.497-6.502 6.497-3.301 0-6.023-2.33-6.435-5.661H1.708c.42 3.997 3.9 7.326 8.122 7.326 4.505 0 8.17-3.662 8.17-8.162A8.167 8.167 0 0 0 3.812 2.989z"/><path fill="url(#pz95a)" d="M3.813 2.99c-.523.522-1.482 1.389-2.148 2.158V2.011H0v5.986h5.998V6.342h-3.17C5.252 4.01 6.656 2.009 9.83 2.009c3.585 0 6.502 2.913 6.502 6.495 0 3.581-2.917 6.497-6.502 6.497-3.301 0-6.023-2.33-6.435-5.661H1.708c.42 3.997 3.9 7.326 8.122 7.326 4.505 0 8.17-3.662 8.17-8.162A8.167 8.167 0 0 0 3.812 2.989z"/></g></g></svg>