<svg xmlns="http://www.w3.org/2000/svg" width="24" height="30" viewBox="0 0 24 30"><path d="M23.637 18.65a.622.622 0 0 1 .359.57v7.11c0 2.03-1.959 3.67-4.367 3.67s-4.366-1.64-4.366-3.67v-7.11a.621.621 0 0 1 .36-.57 1.133 1.133 0 0 0 .738-.96 1.145 1.145 0 0 0-.738-.96.621.621 0 0 1-.36-.57v-2.6a.622.622 0 0 1 .617-.63h3.132V4.49h-.128a.621.621 0 0 1-.589-.44L17.72 2.2a.645.645 0 0 1 .02-.44l.575-1.38a.612.612 0 0 1 .569-.39h1.492a.611.611 0 0 1 .568.39l.576 1.38a.651.651 0 0 1 .019.44l-.575 1.85a.621.621 0 0 1-.588.44h-.13v8.44h3.133a.622.622 0 0 1 .617.63v2.6a.621.621 0 0 1-.36.57 1.146 1.146 0 0 0-.739.96 1.133 1.133 0 0 0 .74.96zM20.294 2.04l-.328-.79h-.673l-.328.79.371 1.19h.587zm2.467 17.55a2.193 2.193 0 0 1 0-3.8v-1.6H16.5v1.6a2.193 2.193 0 0 1 0 3.8v6.74c0 1.33 1.4 2.42 3.131 2.42s3.132-1.09 3.132-2.42v-6.74zm-3.132 7.25a.622.622 0 0 1-.617-.63v-5.88a.617.617 0 1 1 1.234 0v5.88a.622.622 0 0 1-.617.63zm-9.163-14.66l.94 13.57a4.162 4.162 0 1 1-8.324.05l.941-13.61C2.767 11.33.004 9.14.004 6.29A7.215 7.215 0 0 1 3.226.28a.615.615 0 0 1 .956.53v4.11l1.485 2.25h3.154l1.486-2.25V.81a.615.615 0 0 1 .955-.53 7.215 7.215 0 0 1 3.223 6.01c.001 2.85-2.763 5.04-4.019 5.89zm1.076-10.06v2.99a.667.667 0 0 1-.105.35L9.663 8.15a.617.617 0 0 1-.512.27H5.339a.617.617 0 0 1-.513-.27L3.052 5.46a.658.658 0 0 1-.105-.35V2.12a5.956 5.956 0 0 0-1.708 4.17c0 2.47 2.87 4.48 3.751 5.03a.643.643 0 0 1 .289.58l-.965 13.94a2.93 2.93 0 0 0 5.859-.04L9.21 11.9a.643.643 0 0 1 .289-.58c.88-.55 3.752-2.56 3.752-5.03a5.962 5.962 0 0 0-1.709-4.17zM7.293 27.76a1.545 1.545 0 0 1-1.085-2.64 1.524 1.524 0 0 1 1.084-.45 1.545 1.545 0 0 1 .001 3.09zm0-1.84a.351.351 0 0 0-.22.09.306.306 0 0 0-.084.2c0 .33.61.33.61.01a.307.307 0 0 0-.307-.3z" fill="#d9b898" fill-rule="evenodd"/></svg>