<svg xmlns="http://www.w3.org/2000/svg" width="36" height="36" viewBox="0 0 36 36"><g><g><path fill="#fff" d="M17.996 35.99c-9.93 0-18.008-8.072-18.008-17.994C-.012 8.072 8.067 0 17.996 0c9.93 0 18.008 8.072 18.008 17.996 0 9.922-8.079 17.994-18.008 17.994zm0-34.447c-9.078 0-16.463 7.38-16.463 16.453 0 9.072 7.385 16.451 16.463 16.451 9.078 0 16.463-7.38 16.463-16.451 0-9.072-7.385-16.453-16.463-16.453zm3.763 28.587a1.293 1.293 0 0 1-1.711-.95 1.274 1.274 0 0 1 .714-1.455c2.216-1.043 3.486-2.478 3.486-3.937 0-2.39-3.51-4.455-8.29-4.959v1.994c0 1.515-1.754 2.053-2.692 1.372l-7.093-6.213c-.391-.282-.645-.78-.645-1.33.001-.546.255-1.045.699-1.368L13.21 7.16c1.28-.942 2.747.038 2.747 1.326v2.053c8.454 1.055 14.425 5.387 14.425 10.47 0 3.78-3.224 7.19-8.624 9.122zm-6.52-18.136l-.053.002a.772.772 0 0 1-.772-.772V8.485c0-.095-.092-.155-.155-.155l-7.186 6.324c.019.014.1.152.118.168l7.039 6.169c.184-.023.184-.132.184-.168v-2.835a.771.771 0 0 1 .822-.77c6.216.41 10.557 3.111 10.557 6.57 0 1.337-.659 2.618-1.867 3.71 3.108-1.698 4.912-4.02 4.912-6.49 0-4.414-5.715-8.198-13.6-9.014z"/></g></g></svg>