<svg xmlns="http://www.w3.org/2000/svg" width="31" height="36" viewBox="0 0 31 36"><defs><linearGradient id="aqbba" x1="15.5" x2="15.5" y1="36" y2="0" gradientUnits="userSpaceOnUse"><stop offset="0" stop-color="#ca6"/><stop offset=".5" stop-color="#e6d6b8"/><stop offset="1" stop-color="#ca6"/></linearGradient></defs><g><g><path fill="#fff" d="M14.5 30h3.333v-6.667H24.5V20h-10zM9.43 5.233l-8.86 8.43 8.86 8.431 2.298-2.412-4.57-4.349h10.009V12H7.157l4.571-4.352zM.5 0v7.333h3.334v-4h23.332V23.65l-9.028 9.017H3.834V20H.5v16h19.023L30.5 25.025V0z"/><path fill="url(#aqbba)" d="M14.5 30h3.333v-6.667H24.5V20h-10zM9.43 5.233l-8.86 8.43 8.86 8.431 2.298-2.412-4.57-4.349h10.009V12H7.157l4.571-4.352zM.5 0v7.333h3.334v-4h23.332V23.65l-9.028 9.017H3.834V20H.5v16h19.023L30.5 25.025V0z"/></g></g></svg>