<svg xmlns="http://www.w3.org/2000/svg" width="25" height="25" viewBox="0 0 25 25"><g><g><path fill="#0f294d" d="M22.873 12.437c-1.053 1.053-2.668 1.61-4.669 1.61-.717 0-1.462-.07-2.218-.209l-8.582 9.853c-.85.853-1.938 1.307-3.089 1.307a4.284 4.284 0 0 1-3.048-1.263 4.316 4.316 0 0 1 0-6.095l9.9-8.624c-.29-1.62-.568-4.918 1.4-6.885A7.317 7.317 0 0 1 19.14.136a.88.88 0 0 1 .451 1.485L16.824 4.39l-.485 2.338 1.937 1.935 2.338-.484 2.769-2.767c.467-.467 1.358-.187 1.484.45a7.28 7.28 0 0 1-1.994 6.575zm.984-5.945l-2.582 2.58a.557.557 0 0 1-.277.15l-2.79.578a.554.554 0 0 1-.5-.15l-2.355-2.355a.55.55 0 0 1-.15-.5l.578-2.79a.555.555 0 0 1 .15-.276l2.58-2.582a6.14 6.14 0 0 0-5.168 1.761c-1.777 1.777-1.245 5.199-1.04 6.205a.55.55 0 0 1-.177.524l-10.11 8.806c-1.223 1.225-1.223 3.263.028 4.515 1.215 1.214 3.324 1.219 4.557-.016l8.765-10.065a.55.55 0 0 1 .526-.177c.78.162 1.58.247 2.312.247 1.188 0 2.827-.224 3.892-1.287a6.183 6.183 0 0 0 1.761-5.168zM4.438 21.88c-.35 0-.68-.137-.93-.386a1.319 1.319 0 0 1 0-1.858c.497-.499 1.363-.498 1.86-.002a1.317 1.317 0 0 1-.93 2.246zm.153-1.469a.215.215 0 0 0-.152-.062.215.215 0 0 0-.153.063.217.217 0 0 0 0 .306c.11.11.196.109.305 0a.217.217 0 0 0 0-.307z"/></g></g></svg>