<svg xmlns="http://www.w3.org/2000/svg" width="20" height="30" viewBox="0 0 20 30"><path d="M18.565 30H1.43A1.541 1.541 0 0 1 0 28.37V1.63A1.541 1.541 0 0 1 1.43 0H15a1.138 1.138 0 0 1 .891.47l3.681 4.09A1.5 1.5 0 0 1 20 5.62v22.75A1.543 1.543 0 0 1 18.565 30zm-3.01-28.14V5h2.832zm3.334 4.39H15a.6.6 0 0 1-.556-.63V1.24L1.43 1.25a.356.356 0 0 0-.319.38v26.74a.356.356 0 0 0 .319.38h17.135a.357.357 0 0 0 .324-.38V6.25zM15.6 22.5H4.439a.629.629 0 0 1 0-1.25H15.6a.629.629 0 0 1 0 1.25zm0-3.75H4.439a.629.629 0 0 1 0-1.25H15.6a.629.629 0 0 1 0 1.25zm0-3.75H4.439a.629.629 0 0 1 0-1.25H15.6a.629.629 0 0 1 0 1.25zm-4.959-3.75h-6.2a.629.629 0 0 1 0-1.25h6.2a.629.629 0 0 1-.004 1.25z" fill="#d9b898" fill-rule="evenodd"/></svg>