<svg xmlns="http://www.w3.org/2000/svg" width="22" height="14" viewBox="0 0 22 14"><g><g><path fill="#998a7a" d="M21.539 12.21h-1.427c-.23 1.022-1.123 1.789-2.19 1.789-1.065 0-1.954-.76-2.189-1.776H8.112c-.235 1.016-1.124 1.776-2.187 1.776-1.085 0-1.993-.79-2.206-1.835h-.92a.464.464 0 0 1-.459-.47v-1.36h-.098a.464.464 0 0 1-.46-.47V8.033c0-.26.206-.47.46-.47.253 0 .459.21.459.47v1.362h.083c.005 0 .01-.004.015-.004h11.856V.948H2.723V2.38c0 .26-.205.47-.459.47a.464.464 0 0 1-.459-.47V.48c0-.26.205-.47.459-.47h15.657a.46.46 0 0 1 .42.281l1.51 3.523 1.544 1.075c.378.262.603.697.603 1.164v5.69c0 .259-.206.468-.46.468zm-3.618.85c.736 0 1.335-.613 1.335-1.365 0-.753-.6-1.365-1.335-1.365-.737 0-1.336.612-1.336 1.365 0 .752.6 1.365 1.336 1.365zM3.258 10.33v.896h.46c.068-.332.21-.633.402-.896zm2.667 0c-.737 0-1.336.612-1.336 1.365 0 .752.599 1.365 1.336 1.365.736 0 1.334-.613 1.334-1.365 0-.753-.598-1.365-1.334-1.365zm1.804 0c.202.278.345.6.408.954h7.571c.063-.354.206-.676.408-.954zm13.35-4.278c0-.156-.075-.3-.2-.388l-1.654-1.151a.468.468 0 0 1-.162-.2L17.621.948h-2.048V9.39h5.507zm0 4.278h-1.354c.2.274.343.593.407.942h.948zM4.59 4.245c0 .26-.205.47-.459.47H.46a.464.464 0 0 1-.46-.47c0-.26.206-.47.46-.47H4.13c.254 0 .46.21.46.47zM1.377 5.653h1.835c.254 0 .46.21.46.47 0 .259-.206.469-.46.469H1.377a.464.464 0 0 1-.46-.47c0-.26.206-.47.46-.47z"/></g></g></svg>