<svg xmlns="http://www.w3.org/2000/svg" width="19.82" height="18" viewBox="0 0 19.82 18"><path d="M19.77 6.813a.97.97 0 0 0-.92-.657l-6.02-.117-1.98-5.4a1.006 1.006 0 0 0-1.87 0l-1.97 5.4-6.03.117a.969.969 0 0 0-.92.657.925.925 0 0 0 .35 1.05l4.79 3.451-1.74 5.463a.9.9 0 0 0 .15.836 1.012 1.012 0 0 0 1.36.223l4.95-3.27 4.95 3.27a.99.99 0 0 0 .55.169.992.992 0 0 0 .8-.392.9.9 0 0 0 .15-.836l-1.74-5.463 4.79-3.452a.908.908 0 0 0 .35-1.049zm-.85.406l-5.03 3.621a.4.4 0 0 0-.15.439l1.83 5.734a.109.109 0 0 1-.02.122.167.167 0 0 1-.13.066.163.163 0 0 1-.08-.028l-5.19-3.427a.427.427 0 0 0-.47 0l-5.19 3.428a.156.156 0 0 1-.21-.039.131.131 0 0 1-.02-.122l1.83-5.734a.4.4 0 0 0-.15-.439L.91 7.22A.145.145 0 0 1 1 6.96l6.31-.122a.419.419 0 0 0 .39-.269L9.77.906a.151.151 0 0 1 .15-.1.139.139 0 0 1 .14.1l2.07 5.662a.419.419 0 0 0 .39.269l6.31.122a.132.132 0 0 1 .14.1.125.125 0 0 1-.05.16z" fill="#d9b898" fill-rule="evenodd"/></svg>