<svg xmlns="http://www.w3.org/2000/svg" width="19" height="17" viewBox="0 0 19 17"><defs><linearGradient id="dubea" x1="9.5" x2="9.5" y1="17.07" y2="-.06" gradientUnits="userSpaceOnUse"><stop offset="0" stop-color="#ca6"/><stop offset=".5" stop-color="#e6d6b8"/><stop offset="1" stop-color="#ca6"/></linearGradient></defs><g><g><path fill="gray" d="M9.5 11.963L6.116 14.07l.953-3.874-3.036-2.566 3.962-.289L9.5 3.638l1.506 3.702 3.962.289-3.036 2.566.953 3.874zm9-5.487L11.965 6 9.5-.06 7.036 6 .5 6.476l5.008 4.233-1.564 6.362L9.5 13.615l5.557 3.456-1.565-6.362z"/><path fill="url(#dubea)" d="M9.5 11.963L6.116 14.07l.953-3.874-3.036-2.566 3.962-.289L9.5 3.638l1.506 3.702 3.962.289-3.036 2.566.953 3.874zm9-5.487L11.965 6 9.5-.06 7.036 6 .5 6.476l5.008 4.233-1.564 6.362L9.5 13.615l5.557 3.456-1.565-6.362z"/></g></g></svg>