<svg xmlns="http://www.w3.org/2000/svg" width="26" height="25" viewBox="0 0 26 25"><g><g><path fill="#998a7a" d="M21.85 13.245a.568.568 0 0 1-.622-.51.574.574 0 0 1 .496-.637c1.487-.172 2.652-1.468 2.652-2.951V4.675c0-1.584-1.432-2.972-3.064-2.972h-9.084c-1.448 0-2.561 1.106-2.708 2.688a.562.562 0 0 1-.613.52.573.573 0 0 1-.506-.628C8.6 2.119 10.21.549 12.228.549h9.084c2.27 0 4.189 1.89 4.189 4.126v4.472c0 2.061-1.604 3.861-3.65 4.098zm-1.975-2.872v5.73c0 2.243-1.784 4.068-3.978 4.068h-4.698l-3.976 3.88c-.27.257-.586.388-.918.388-.732 0-1.305-.633-1.305-1.442V20.17h-.418C2.37 20.17.5 18.308.5 16.103v-5.73C.5 8.176 2.37 6.32 4.582 6.32h11.315c2.194 0 3.978 1.818 3.978 4.053zm-18.25 0v5.73c0 1.579 1.354 2.914 2.957 2.914h.98a.57.57 0 0 1 .563.577v3.403c0 .295.236.303.33.212l4.132-4.034a.553.553 0 0 1 .388-.158h4.922c1.573 0 2.853-1.308 2.853-2.914v-5.73c0-1.598-1.28-2.899-2.853-2.899H4.582c-1.603 0-2.957 1.328-2.957 2.9zm13.11 5.18H5.581a.57.57 0 0 1-.562-.576.57.57 0 0 1 .562-.577h9.154a.57.57 0 0 1 .563.577.57.57 0 0 1-.563.577zm0-3.462H5.581a.57.57 0 0 1-.562-.577.57.57 0 0 1 .562-.577h9.154a.57.57 0 0 1 .563.577.57.57 0 0 1-.563.577z"/></g></g></svg>