<svg xmlns="http://www.w3.org/2000/svg" width="17" height="17" viewBox="0 0 17 17"><g><g><path fill="#998a7a" d="M14.97 17H2.03C.91 17 0 16.09 0 14.97V2.03c0-1.12.91-2.03 2.03-2.03h12.94C16.09 0 17 .91 17 2.03V14.97c0 1.12-.91 2.03-2.03 2.03zm1.322-14.971c0-.729-.593-1.322-1.322-1.322H2.03C1.3.707.707 1.3.707 2.03V14.97c0 .73.593 1.322 1.321 1.322H14.97c.729 0 1.322-.593 1.322-1.322zm-3.198 10.72H3.906a.354.354 0 1 1 0-.708h9.188a.354.354 0 1 1 0 .709zm0-3.833H3.906a.354.354 0 1 1 0-.708h9.188a.354.354 0 1 1 0 .708zm0-3.833H3.906a.354.354 0 1 1 0-.708h9.188a.354.354 0 1 1 0 .708z"/></g></g></svg>