<svg xmlns="http://www.w3.org/2000/svg" width="20" height="16" viewBox="0 0 20 16"><defs><linearGradient id="d188a" x1="10" x2="10" y1="15.81" y2=".19" gradientUnits="userSpaceOnUse"><stop offset="0" stop-color="#ca6"/><stop offset=".5" stop-color="#e6d6b8"/><stop offset="1" stop-color="#ca6"/></linearGradient></defs><g><g><path fill="#fff" d="M16.251 13.157a1.095 1.095 0 0 0-2.188 0c0 .603.49 1.094 1.094 1.094.603 0 1.094-.491 1.094-1.094zm-9.377 0a1.095 1.095 0 0 0-2.187 0c0 .603.49 1.094 1.093 1.094.604 0 1.094-.491 1.094-1.094zm13.128-4.003v4.784h-2.306a2.662 2.662 0 0 1-2.539 1.876 2.662 2.662 0 0 1-2.539-1.876H8.32a2.662 2.662 0 0 1-2.54 1.876 2.662 2.662 0 0 1-2.539-1.876H.936V9.563h-.938V8h3.75v1.563h-1.25v2.813h.743a2.661 2.661 0 0 1 2.54-1.876c1.192 0 2.204.79 2.539 1.876h4.298a2.661 2.661 0 0 1 2.54-1.876c1.192 0 2.204.79 2.538 1.876h.743V9.154c0-.312-.134-.61-.367-.817l-.97-.862-.469-2.229a.471.471 0 0 0-.459-.372h-2.423v4.689h-1.563V1.749h-9.69v2.188h-2.5V2.374h.938V.186H13.75v3.125h2.423a2.04 2.04 0 0 1 1.988 1.614l.363 1.724.585.52c.567.503.892 1.227.892 1.986zM5.312 6.75H-.002V5.187h5.314z"/><path fill="url(#d188a)" d="M16.251 13.157a1.095 1.095 0 0 0-2.188 0c0 .603.49 1.094 1.094 1.094.603 0 1.094-.491 1.094-1.094zm-9.377 0a1.095 1.095 0 0 0-2.187 0c0 .603.49 1.094 1.093 1.094.604 0 1.094-.491 1.094-1.094zm13.128-4.003v4.784h-2.306a2.662 2.662 0 0 1-2.539 1.876 2.662 2.662 0 0 1-2.539-1.876H8.32a2.662 2.662 0 0 1-2.54 1.876 2.662 2.662 0 0 1-2.539-1.876H.936V9.563h-.938V8h3.75v1.563h-1.25v2.813h.743a2.661 2.661 0 0 1 2.54-1.876c1.192 0 2.204.79 2.539 1.876h4.298a2.661 2.661 0 0 1 2.54-1.876c1.192 0 2.204.79 2.538 1.876h.743V9.154c0-.312-.134-.61-.367-.817l-.97-.862-.469-2.229a.471.471 0 0 0-.459-.372h-2.423v4.689h-1.563V1.749h-9.69v2.188h-2.5V2.374h.938V.186H13.75v3.125h2.423a2.04 2.04 0 0 1 1.988 1.614l.363 1.724.585.52c.567.503.892 1.227.892 1.986zM5.312 6.75H-.002V5.187h5.314z"/></g></g></svg>