<svg xmlns="http://www.w3.org/2000/svg" width="40" height="32" viewBox="0 0 40 32"><defs><linearGradient id="xahya" x1="20" x2="20" y1="31.63" y2=".37" gradientUnits="userSpaceOnUse"><stop offset="0" stop-color="#ca6"/><stop offset=".5" stop-color="#e6d6b8"/><stop offset="1" stop-color="#ca6"/></linearGradient></defs><g><g><path fill="#fff" d="M32.502 26.314a2.19 2.19 0 0 0-2.188-2.188 2.19 2.19 0 0 0-2.188 2.188 2.19 2.19 0 0 0 2.188 2.188 2.19 2.19 0 0 0 2.188-2.188zm-18.753 0a2.19 2.19 0 0 0-2.188-2.188 2.19 2.19 0 0 0-2.188 2.188 2.19 2.19 0 0 0 2.188 2.188 2.19 2.19 0 0 0 2.188-2.188zm26.254-8.005v9.568h-4.61a5.323 5.323 0 0 1-5.079 3.75 5.323 5.323 0 0 1-5.078-3.75H16.64a5.323 5.323 0 0 1-5.078 3.75 5.323 5.323 0 0 1-5.078-3.75H1.872v-8.751H-.003V16h7.5v3.126h-2.5v5.625h1.486a5.323 5.323 0 0 1 5.078-3.75 5.323 5.323 0 0 1 5.078 3.75h8.597a5.323 5.323 0 0 1 5.078-3.75 5.323 5.323 0 0 1 5.078 3.75h1.486V18.31c0-.624-.268-1.22-.735-1.635l-1.938-1.723-.939-4.458a.942.942 0 0 0-.917-.744H27.5v9.377h-3.125V3.498H4.997v4.376h-5V4.748h1.875V.372h25.63v6.251h4.847a4.081 4.081 0 0 1 3.976 3.227l.726 3.449 1.17 1.04a5.317 5.317 0 0 1 1.782 3.97zm-29.38-4.81H-.003v-3.125h10.626z"/><path fill="url(#xahya)" d="M32.502 26.314a2.19 2.19 0 0 0-2.188-2.188 2.19 2.19 0 0 0-2.188 2.188 2.19 2.19 0 0 0 2.188 2.188 2.19 2.19 0 0 0 2.188-2.188zm-18.753 0a2.19 2.19 0 0 0-2.188-2.188 2.19 2.19 0 0 0-2.188 2.188 2.19 2.19 0 0 0 2.188 2.188 2.19 2.19 0 0 0 2.188-2.188zm26.254-8.005v9.568h-4.61a5.323 5.323 0 0 1-5.079 3.75 5.323 5.323 0 0 1-5.078-3.75H16.64a5.323 5.323 0 0 1-5.078 3.75 5.323 5.323 0 0 1-5.078-3.75H1.872v-8.751H-.003V16h7.5v3.126h-2.5v5.625h1.486a5.323 5.323 0 0 1 5.078-3.75 5.323 5.323 0 0 1 5.078 3.75h8.597a5.323 5.323 0 0 1 5.078-3.75 5.323 5.323 0 0 1 5.078 3.75h1.486V18.31c0-.624-.268-1.22-.735-1.635l-1.938-1.723-.939-4.458a.942.942 0 0 0-.917-.744H27.5v9.377h-3.125V3.498H4.997v4.376h-5V4.748h1.875V.372h25.63v6.251h4.847a4.081 4.081 0 0 1 3.976 3.227l.726 3.449 1.17 1.04a5.317 5.317 0 0 1 1.782 3.97zm-29.38-4.81H-.003v-3.125h10.626z"/></g></g></svg>