<svg xmlns="http://www.w3.org/2000/svg" width="20" height="16" viewBox="0 0 20 16"><g><g><path fill="gray" d="M16.251 13.157a1.095 1.095 0 0 0-2.188 0 1.095 1.095 0 0 0 2.188 0zm-9.377 0a1.095 1.095 0 0 0-2.188 0 1.095 1.095 0 0 0 2.188 0zm13.128-4.002v4.783h-2.306a2.662 2.662 0 0 1-2.539 1.876 2.662 2.662 0 0 1-2.539-1.876H8.32a2.662 2.662 0 0 1-2.54 1.876 2.662 2.662 0 0 1-2.538-1.876H.936V9.563h-.938V8h3.75v1.563h-1.25v2.812h.744A2.661 2.661 0 0 1 5.78 10.5c1.193 0 2.205.791 2.54 1.875h4.298a2.661 2.661 0 0 1 2.54-1.875c1.192 0 2.204.791 2.538 1.875h.743v-3.22c0-.313-.134-.61-.367-.818l-.97-.862-.469-2.229a.471.471 0 0 0-.459-.372h-2.423v4.689h-1.563V1.749h-9.69v2.188h-2.5V2.374h.938V.186h12.815v3.125h2.423a2.04 2.04 0 0 1 1.988 1.614l.363 1.724.585.52c.567.503.892 1.227.892 1.986zM5.312 6.75H-.002V5.187h5.314z"/></g></g></svg>