<svg xmlns="http://www.w3.org/2000/svg" width="40" height="27" viewBox="0 0 40 27"><g><g><path fill="#fff" d="M39.161 23.805h-2.594c-.419 1.825-2.04 3.193-3.983 3.193-1.934 0-3.55-1.357-3.978-3.17H14.749c-.428 1.813-2.043 3.17-3.977 3.17-1.972 0-3.623-1.408-4.01-3.276H5.089a.836.836 0 0 1-.834-.838v-2.432h-.18a.836.836 0 0 1-.834-.838v-5.27a.836.836 0 0 1 1.669 0v4.432h.151c.01 0 .018-.005.028-.005h21.556V1.693H4.951v2.56a.836.836 0 0 1-.834.838.836.836 0 0 1-.835-.838V.855c0-.463.373-.838.835-.838h28.467c.33 0 .63.197.764.502l2.745 6.29L38.9 8.73a2.514 2.514 0 0 1 1.095 2.078v12.16a.836.836 0 0 1-.835.838zm-6.577 1.517a2.436 2.436 0 0 0 2.426-2.439 2.435 2.435 0 0 0-2.426-2.436 2.435 2.435 0 0 0-2.429 2.436 2.436 2.436 0 0 0 2.429 2.44zm-26.66-4.875v1.6h.837c.123-.593.382-1.13.73-1.6zm4.848 0a2.435 2.435 0 0 0-2.428 2.436 2.436 2.436 0 0 0 2.428 2.44 2.435 2.435 0 0 0 2.427-2.44 2.434 2.434 0 0 0-2.427-2.436zm3.281 0a4.08 4.08 0 0 1 .74 1.704h13.768a4.076 4.076 0 0 1 .741-1.704zm24.274-9.64a.839.839 0 0 0-.365-.692L34.955 8.06a.84.84 0 0 1-.295-.357l-2.622-6.01h-3.724V18.77h10.013zm0 9.64h-2.462c.362.49.622 1.059.738 1.682h1.724zM8.344 7.58a.836.836 0 0 1-.835.838H.834A.836.836 0 0 1 0 7.58c0-.463.373-.838.834-.838H7.51c.462 0 .835.375.835.838zm-5.84 2.514H5.84c.46 0 .834.375.834.838a.836.836 0 0 1-.834.838H2.503a.836.836 0 0 1-.834-.838c0-.463.373-.838.834-.838z"/></g></g></svg>