<svg xmlns="http://www.w3.org/2000/svg" width="15" height="16.75" viewBox="0 0 15 16.75"><path d="M11.61 3.954v1.854a1.927 1.927 0 0 1 .3 1.344 1.959 1.959 0 0 1-.62 1.186 6.242 6.242 0 0 1-1.23 2.351v.636c.24.623 1.53 1.879 4.25 2.968a1.108 1.108 0 0 1 .68 1.035v.947a.47.47 0 1 1-.94 0v-.946a.157.157 0 0 0-.09-.157c-2.58-1.035-4.47-2.46-4.82-3.632a.624.624 0 0 1-.02-.136v-.9a.487.487 0 0 1 .13-.325 5.24 5.24 0 0 0 1.17-2.24.465.465 0 0 1 .18-.258.945.945 0 0 0 .38-.662 1.01 1.01 0 0 0-.2-.77.446.446 0 0 1-.1-.293V3.954c0-2-1.07-3.016-3.18-3.016-2.05 0-3.18 1.072-3.18 3.016V5.96a.51.51 0 0 1-.1.293.976.976 0 0 0-.21.77 1.019 1.019 0 0 0 .38.661.466.466 0 0 1 .18.258 5.248 5.248 0 0 0 1.17 2.241.443.443 0 0 1 .13.325v.9a.319.319 0 0 1-.02.136c-.35 1.171-2.24 2.6-4.82 3.632a.173.173 0 0 0-.09.157v.942a.47.47 0 1 1-.94 0v-.946a1.108 1.108 0 0 1 .68-1.034c2.72-1.093 4.01-2.348 4.26-2.969v-.636a6.107 6.107 0 0 1-1.23-2.352 1.961 1.961 0 0 1-.33-2.529V3.954c0-2.48 1.54-3.961 4.12-3.961 2.61 0 4.11 1.444 4.11 3.961z" fill="#d9b898" fill-rule="evenodd"/></svg>