<svg xmlns="http://www.w3.org/2000/svg" width="36" height="34" viewBox="0 0 36 34"><g><g><path fill="#fff" d="M35.25 28.105h-2.278v5.239a.748.748 0 0 1-.749.747H3.098a3.107 3.107 0 0 1-3.105-3.102V10.883c0-1.955 1.294-3.543 2.918-3.66L26.626-.076a.75.75 0 0 1 .936.494l2.106 6.78h2.555a.748.748 0 1 1 0 1.496h-2.09l1.36 4.378h.73c.414 0 .749.334.749.747v5.406h2.278c.414 0 .748.334.748.747v7.385a.747.747 0 0 1-.748.747zM2.613 8.812C1.971 9.1 1.49 9.927 1.49 10.883c0 1.187.737 2.19 1.608 2.19H4.14zm23.74-7.238L4.066 8.431l1.663 4.642h24.196zm5.122 12.993H3.098c-.59 0-1.138-.207-1.608-.548v16.97c0 .886.72 1.607 1.608 1.607h28.377v-4.491h-2.897a4.449 4.449 0 0 1-4.447-4.44 4.45 4.45 0 0 1 4.447-4.44h2.897zM34.5 20.72h-5.923a2.951 2.951 0 0 0-2.95 2.946 2.95 2.95 0 0 0 2.95 2.944h5.923zm-6.161 2.951a.81.81 0 0 1 .209-.538.784.784 0 0 1 1.063 0c.135.15.225.344.225.538 0 .194-.09.388-.225.523a.763.763 0 0 1-.524.224.77.77 0 0 1-.539-.224.749.749 0 0 1-.21-.523z"/></g></g></svg>