<svg xmlns="http://www.w3.org/2000/svg" width="31.25" height="30" viewBox="0 0 31.25 30"><path d="M27.076 25.16a14.482 14.482 0 0 0 0-20.33.482.482 0 0 0-.074-.11.217.217 0 0 0-.068-.04 16 16 0 0 0-21.9-.69.525.525 0 0 0-.112.07c-.02.02-.028.05-.046.07a14.528 14.528 0 0 0 0 21.72c.019.02.028.05.05.07a.618.618 0 0 0 .123.08 16 16 0 0 0 21.893-.7.217.217 0 0 0 .068-.04.8.8 0 0 0 .066-.1zm-.582-1.29l-4.727-4.54a7.051 7.051 0 0 0 0-8.68l4.727-4.54a13.256 13.256 0 0 1 0 17.76zM9.31 14.99a6.313 6.313 0 1 1 6.308 6.06 6.188 6.188 0 0 1-6.308-6.06zm16.273-9.81l-4.7 4.51a7.817 7.817 0 0 0-9.787-.6L6.369 4.55a14.663 14.663 0 0 1 19.214.63zM1.327 14.99a13.409 13.409 0 0 1 4.067-9.57l4.7 4.51a7.1 7.1 0 0 0 0 10.12l-4.7 4.51a13.41 13.41 0 0 1-4.069-9.57zm5.045 10.44l4.727-4.54a7.814 7.814 0 0 0 9.785-.6l4.7 4.51a14.662 14.662 0 0 1-19.212.63z" fill="#d9b898" fill-rule="evenodd"/></svg>