<svg xmlns="http://www.w3.org/2000/svg" width="20" height="19" viewBox="0 0 20 19"><defs><linearGradient id="5qh5a" x1="10.25" x2="9.74" y1="18.31" y2=".31" gradientUnits="userSpaceOnUse"><stop offset="0" stop-color="#ca6"/><stop offset=".5" stop-color="#e6d6b8"/><stop offset="1" stop-color="#ca6"/></linearGradient></defs><g><g><path fill="#fff" d="M15.61 9.795c-2.47 2.556-4.58 4.76-5.61 5.836a1697 1697 0 0 0-5.61-5.836c-1.584-1.64-1.846-3.166-1.786-4.158.075-1.277.69-2.211 1.24-2.66a3.771 3.771 0 0 1 2.313-.814c2.646 0 2.888 2.353 2.92 2.592.044.34.31.74.963.74.62 0 .822-.429.883-.734.053-.263.274-2.598 2.92-2.598.823 0 1.688.305 2.314.815.55.448 1.163 1.382 1.24 2.66.059.99-.203 2.517-1.787 4.157zm3.634-4.268c-.095-1.593-.812-3.082-1.917-3.984A5.601 5.601 0 0 0 13.843.312c-1.914 0-3.121.82-3.843 1.81-.722-.99-1.929-1.81-3.843-1.81a5.6 5.6 0 0 0-3.483 1.231C1.567 2.445.85 3.934.756 5.527c-.081 1.362.253 3.43 2.303 5.553C6.535 14.68 10 18.312 10 18.312s3.464-3.632 6.941-7.232c2.05-2.122 2.384-4.191 2.303-5.553z"/><path fill="url(#5qh5a)" d="M15.61 9.795c-2.47 2.556-4.58 4.76-5.61 5.836a1697 1697 0 0 0-5.61-5.836c-1.584-1.64-1.846-3.166-1.786-4.158.075-1.277.69-2.211 1.24-2.66a3.771 3.771 0 0 1 2.313-.814c2.646 0 2.888 2.353 2.92 2.592.044.34.31.74.963.74.62 0 .822-.429.883-.734.053-.263.274-2.598 2.92-2.598.823 0 1.688.305 2.314.815.55.448 1.163 1.382 1.24 2.66.059.99-.203 2.517-1.787 4.157zm3.634-4.268c-.095-1.593-.812-3.082-1.917-3.984A5.601 5.601 0 0 0 13.843.312c-1.914 0-3.121.82-3.843 1.81-.722-.99-1.929-1.81-3.843-1.81a5.6 5.6 0 0 0-3.483 1.231C1.567 2.445.85 3.934.756 5.527c-.081 1.362.253 3.43 2.303 5.553C6.535 14.68 10 18.312 10 18.312s3.464-3.632 6.941-7.232c2.05-2.122 2.384-4.191 2.303-5.553z"/></g></g></svg>